<?xml version="1.0" encoding="UTF-8" standalone="no"?>
<!-- Created with Inkscape (http://www.inkscape.org/) -->

<svg
   xmlns:osb="http://www.openswatchbook.org/uri/2009/osb"
   xmlns:dc="http://purl.org/dc/elements/1.1/"
   xmlns:cc="http://creativecommons.org/ns#"
   xmlns:rdf="http://www.w3.org/1999/02/22-rdf-syntax-ns#"
   xmlns:svg="http://www.w3.org/2000/svg"
   xmlns="http://www.w3.org/2000/svg"
   xmlns:xlink="http://www.w3.org/1999/xlink"
   xmlns:sodipodi="http://sodipodi.sourceforge.net/DTD/sodipodi-0.dtd"
   xmlns:inkscape="http://www.inkscape.org/namespaces/inkscape"
   width="2100"
   height="246.09448"
   viewBox="0 0 2100 246.09448"
   id="svg2"
   version="1.1"
   inkscape:version="0.91 r"
   sodipodi:docname="logo.svg">
  <defs
     id="defs4">
    <linearGradient
       id="linearGradient5686"
       osb:paint="solid">
      <stop
         style="stop-color:#e6e600;stop-opacity:1;"
         offset="0"
         id="stop5688" />
    </linearGradient>
    <linearGradient
       id="linearGradient5680"
       osb:paint="solid">
      <stop
         style="stop-color:#e6e600;stop-opacity:1;"
         offset="0"
         id="stop5682" />
    </linearGradient>
    <linearGradient
       id="linearGradient5672"
       osb:paint="solid">
      <stop
         style="stop-color:#e6e600;stop-opacity:1;"
         offset="0"
         id="stop5674" />
    </linearGradient>
    <linearGradient
       id="linearGradient5612">
      <stop
         style="stop-color:#000000;stop-opacity:1;"
         offset="0"
         id="stop5614" />
    </linearGradient>
    <linearGradient
       id="linearGradient5604"
       osb:paint="solid">
      <stop
         style="stop-color:#000000;stop-opacity:1;"
         offset="0"
         id="stop5606" />
    </linearGradient>
    <linearGradient
       inkscape:collect="always"
       id="linearGradient4152">
      <stop
         style="stop-color:#e6e600;stop-opacity:1;"
         offset="0"
         id="stop4154" />
      <stop
         style="stop-color:#e6e600;stop-opacity:0;"
         offset="1"
         id="stop4156" />
    </linearGradient>
    <linearGradient
       inkscape:collect="always"
       xlink:href="#linearGradient5686"
       id="linearGradient6810"
       gradientUnits="userSpaceOnUse"
       gradientTransform="matrix(1.9107254,0,0,1.7400395,-623.78137,-385.27877)"
       x1="339.48135"
       y1="757.88568"
       x2="1418.856"
       y2="757.88568" />
    <linearGradient
       inkscape:collect="always"
       xlink:href="#linearGradient4152"
       id="linearGradient6812"
       gradientUnits="userSpaceOnUse"
       gradientTransform="matrix(1.9107254,0,0,1.7400395,-445.69959,-264.51116)"
       x1="246.28024"
       y1="688.48059"
       x2="1325.6549"
       y2="688.48059" />
    <linearGradient
       inkscape:collect="always"
       xlink:href="#linearGradient5686"
       id="linearGradient6814"
       gradientUnits="userSpaceOnUse"
       gradientTransform="matrix(1.9107254,0,0,1.7400395,-623.78137,-385.27877)"
       x1="339.48135"
       y1="757.88568"
       x2="1418.856"
       y2="757.88568" />
    <linearGradient
       inkscape:collect="always"
       xlink:href="#linearGradient4152"
       id="linearGradient6816"
       gradientUnits="userSpaceOnUse"
       gradientTransform="matrix(1.9107254,0,0,1.7400395,-445.69959,-264.51116)"
       x1="246.28024"
       y1="688.48059"
       x2="1325.6549"
       y2="688.48059" />
    <linearGradient
       inkscape:collect="always"
       xlink:href="#linearGradient5686"
       id="linearGradient6818"
       gradientUnits="userSpaceOnUse"
       gradientTransform="matrix(1.9107254,0,0,1.7400395,-623.78137,-385.27877)"
       x1="339.48135"
       y1="757.88568"
       x2="1418.856"
       y2="757.88568" />
    <linearGradient
       inkscape:collect="always"
       xlink:href="#linearGradient4152"
       id="linearGradient6820"
       gradientUnits="userSpaceOnUse"
       gradientTransform="matrix(1.9107254,0,0,1.7400395,-445.69959,-264.51116)"
       x1="246.28024"
       y1="688.48059"
       x2="1325.6549"
       y2="688.48059" />
    <linearGradient
       inkscape:collect="always"
       xlink:href="#linearGradient5686"
       id="linearGradient6822"
       gradientUnits="userSpaceOnUse"
       gradientTransform="matrix(1.9107254,0,0,1.7400395,-623.78137,-385.27877)"
       x1="339.48135"
       y1="757.88568"
       x2="1418.856"
       y2="757.88568" />
    <linearGradient
       inkscape:collect="always"
       xlink:href="#linearGradient4152"
       id="linearGradient6824"
       gradientUnits="userSpaceOnUse"
       gradientTransform="matrix(1.9107254,0,0,1.7400395,-445.69959,-264.51116)"
       x1="246.28024"
       y1="688.48059"
       x2="1325.6549"
       y2="688.48059" />
    <linearGradient
       inkscape:collect="always"
       xlink:href="#linearGradient5686"
       id="linearGradient6826"
       gradientUnits="userSpaceOnUse"
       gradientTransform="matrix(1.9107254,0,0,1.7400395,-623.78137,-385.27877)"
       x1="339.48135"
       y1="757.88568"
       x2="1418.856"
       y2="757.88568" />
    <linearGradient
       inkscape:collect="always"
       xlink:href="#linearGradient4152"
       id="linearGradient6828"
       gradientUnits="userSpaceOnUse"
       gradientTransform="matrix(1.9107254,0,0,1.7400395,-445.69959,-264.51116)"
       x1="246.28024"
       y1="688.48059"
       x2="1325.6549"
       y2="688.48059" />
    <linearGradient
       inkscape:collect="always"
       xlink:href="#linearGradient5686"
       id="linearGradient6830"
       gradientUnits="userSpaceOnUse"
       gradientTransform="matrix(1.9107254,0,0,1.7400395,-623.78137,-385.27877)"
       x1="339.48135"
       y1="757.88568"
       x2="1418.856"
       y2="757.88568" />
    <linearGradient
       inkscape:collect="always"
       xlink:href="#linearGradient4152"
       id="linearGradient6832"
       gradientUnits="userSpaceOnUse"
       gradientTransform="matrix(1.9107254,0,0,1.7400395,-445.69959,-264.51116)"
       x1="246.28024"
       y1="688.48059"
       x2="1325.6549"
       y2="688.48059" />
    <linearGradient
       inkscape:collect="always"
       xlink:href="#linearGradient5686"
       id="linearGradient6834"
       gradientUnits="userSpaceOnUse"
       gradientTransform="matrix(1.9107254,0,0,1.7400395,-623.78137,-385.27877)"
       x1="339.48135"
       y1="757.88568"
       x2="1418.856"
       y2="757.88568" />
    <linearGradient
       inkscape:collect="always"
       xlink:href="#linearGradient4152"
       id="linearGradient6836"
       gradientUnits="userSpaceOnUse"
       gradientTransform="matrix(1.9107254,0,0,1.7400395,-445.69959,-264.51116)"
       x1="246.28024"
       y1="688.48059"
       x2="1325.6549"
       y2="688.48059" />
    <linearGradient
       inkscape:collect="always"
       xlink:href="#linearGradient5686"
       id="linearGradient6838"
       gradientUnits="userSpaceOnUse"
       gradientTransform="matrix(1.9107254,0,0,1.7400395,-623.78137,-385.27877)"
       x1="339.48135"
       y1="757.88568"
       x2="1418.856"
       y2="757.88568" />
    <linearGradient
       inkscape:collect="always"
       xlink:href="#linearGradient4152"
       id="linearGradient6840"
       gradientUnits="userSpaceOnUse"
       gradientTransform="matrix(1.9107254,0,0,1.7400395,-445.69959,-264.51116)"
       x1="246.28024"
       y1="688.48059"
       x2="1325.6549"
       y2="688.48059" />
    <linearGradient
       inkscape:collect="always"
       xlink:href="#linearGradient5686"
       id="linearGradient6842"
       gradientUnits="userSpaceOnUse"
       gradientTransform="matrix(1.9107254,0,0,1.7400395,-623.78137,-385.27877)"
       x1="339.48135"
       y1="757.88568"
       x2="1418.856"
       y2="757.88568" />
    <linearGradient
       inkscape:collect="always"
       xlink:href="#linearGradient4152"
       id="linearGradient6844"
       gradientUnits="userSpaceOnUse"
       gradientTransform="matrix(1.9107254,0,0,1.7400395,-445.69959,-264.51116)"
       x1="246.28024"
       y1="688.48059"
       x2="1325.6549"
       y2="688.48059" />
    <linearGradient
       inkscape:collect="always"
       xlink:href="#linearGradient5686"
       id="linearGradient6846"
       gradientUnits="userSpaceOnUse"
       gradientTransform="matrix(1.9107254,0,0,1.7400395,-623.78137,-385.27877)"
       x1="339.48135"
       y1="757.88568"
       x2="1418.856"
       y2="757.88568" />
    <linearGradient
       inkscape:collect="always"
       xlink:href="#linearGradient4152"
       id="linearGradient6848"
       gradientUnits="userSpaceOnUse"
       gradientTransform="matrix(1.9107254,0,0,1.7400395,-445.69959,-264.51116)"
       x1="246.28024"
       y1="688.48059"
       x2="1325.6549"
       y2="688.48059" />
    <linearGradient
       inkscape:collect="always"
       xlink:href="#linearGradient5686"
       id="linearGradient6850"
       gradientUnits="userSpaceOnUse"
       gradientTransform="matrix(1.9107254,0,0,1.7400395,-623.78137,-385.27877)"
       x1="339.48135"
       y1="757.88568"
       x2="1418.856"
       y2="757.88568" />
    <linearGradient
       inkscape:collect="always"
       xlink:href="#linearGradient4152"
       id="linearGradient6852"
       gradientUnits="userSpaceOnUse"
       gradientTransform="matrix(1.9107254,0,0,1.7400395,-445.69959,-264.51116)"
       x1="246.28024"
       y1="688.48059"
       x2="1325.6549"
       y2="688.48059" />
    <linearGradient
       inkscape:collect="always"
       xlink:href="#linearGradient5686"
       id="linearGradient6854"
       gradientUnits="userSpaceOnUse"
       gradientTransform="matrix(1.9107254,0,0,1.7400395,-623.78137,-385.27877)"
       x1="339.48135"
       y1="757.88568"
       x2="1418.856"
       y2="757.88568" />
    <linearGradient
       inkscape:collect="always"
       xlink:href="#linearGradient4152"
       id="linearGradient6856"
       gradientUnits="userSpaceOnUse"
       gradientTransform="matrix(1.9107254,0,0,1.7400395,-445.69959,-264.51116)"
       x1="246.28024"
       y1="688.48059"
       x2="1325.6549"
       y2="688.48059" />
    <linearGradient
       inkscape:collect="always"
       xlink:href="#linearGradient5686"
       id="linearGradient6858"
       gradientUnits="userSpaceOnUse"
       gradientTransform="matrix(1.9107254,0,0,1.7400395,-623.78137,-385.27877)"
       x1="339.48135"
       y1="757.88568"
       x2="1418.856"
       y2="757.88568" />
    <linearGradient
       inkscape:collect="always"
       xlink:href="#linearGradient4152"
       id="linearGradient6860"
       gradientUnits="userSpaceOnUse"
       gradientTransform="matrix(1.9107254,0,0,1.7400395,-445.69959,-264.51116)"
       x1="246.28024"
       y1="688.48059"
       x2="1325.6549"
       y2="688.48059" />
    <linearGradient
       inkscape:collect="always"
       xlink:href="#linearGradient5686"
       id="linearGradient6862"
       gradientUnits="userSpaceOnUse"
       gradientTransform="matrix(1.9107254,0,0,1.7400395,-623.78137,-385.27877)"
       x1="339.48135"
       y1="757.88568"
       x2="1418.856"
       y2="757.88568" />
    <linearGradient
       inkscape:collect="always"
       xlink:href="#linearGradient4152"
       id="linearGradient6864"
       gradientUnits="userSpaceOnUse"
       gradientTransform="matrix(1.9107254,0,0,1.7400395,-445.69959,-264.51116)"
       x1="246.28024"
       y1="688.48059"
       x2="1325.6549"
       y2="688.48059" />
    <linearGradient
       inkscape:collect="always"
       xlink:href="#linearGradient5686"
       id="linearGradient6866"
       gradientUnits="userSpaceOnUse"
       gradientTransform="matrix(1.9107254,0,0,1.7400395,-623.78137,-385.27877)"
       x1="339.48135"
       y1="757.88568"
       x2="1418.856"
       y2="757.88568" />
    <linearGradient
       inkscape:collect="always"
       xlink:href="#linearGradient4152"
       id="linearGradient6868"
       gradientUnits="userSpaceOnUse"
       gradientTransform="matrix(1.9107254,0,0,1.7400395,-445.69959,-264.51116)"
       x1="246.28024"
       y1="688.48059"
       x2="1325.6549"
       y2="688.48059" />
    <linearGradient
       inkscape:collect="always"
       xlink:href="#linearGradient5686"
       id="linearGradient6870"
       gradientUnits="userSpaceOnUse"
       gradientTransform="matrix(1.9107254,0,0,1.7400395,-623.78137,-385.27877)"
       x1="339.48135"
       y1="757.88568"
       x2="1418.856"
       y2="757.88568" />
    <linearGradient
       inkscape:collect="always"
       xlink:href="#linearGradient4152"
       id="linearGradient6872"
       gradientUnits="userSpaceOnUse"
       gradientTransform="matrix(1.9107254,0,0,1.7400395,-445.69959,-264.51116)"
       x1="246.28024"
       y1="688.48059"
       x2="1325.6549"
       y2="688.48059" />
  </defs>
  <sodipodi:namedview
     id="base"
     pagecolor="#ffffff"
     bordercolor="#666666"
     borderopacity="1.0"
     inkscape:pageopacity="0.0"
     inkscape:pageshadow="2"
     inkscape:zoom="0.43852551"
     inkscape:cx="1059.1076"
     inkscape:cy="508.57143"
     inkscape:document-units="px"
     inkscape:current-layer="layer1"
     showgrid="false"
     units="px"
     fit-margin-top="0"
     fit-margin-left="0"
     fit-margin-right="0"
     fit-margin-bottom="0"
     inkscape:window-width="1680"
     inkscape:window-height="1023"
     inkscape:window-x="1680"
     inkscape:window-y="0"
     inkscape:window-maximized="1" />
  <metadata
     id="metadata7">
    <rdf:RDF>
      <cc:Work
         rdf:about="">
        <dc:format>image/svg+xml</dc:format>
        <dc:type
           rdf:resource="http://purl.org/dc/dcmitype/StillImage" />
        <dc:title></dc:title>
      </cc:Work>
    </rdf:RDF>
  </metadata>
  <g
     inkscape:label="Layer 1"
     inkscape:groupmode="layer"
     id="layer1"
     transform="translate(0,-806.26771)">
    <path
       inkscape:connector-curvature="0"
       id="path6780"
       style="font-style:oblique;font-variant:normal;font-weight:bold;font-stretch:normal;font-size:medium;line-height:125%;font-family:Purisa;-inkscape-font-specification:'Purisa, Bold Oblique';text-align:center;letter-spacing:13.60246181px;word-spacing:0px;writing-mode:lr-tb;text-anchor:middle;fill:#000000;fill-opacity:1;stroke:none;stroke-width:1px;stroke-linecap:butt;stroke-linejoin:miter;stroke-opacity:1"
       d="m 159.77503,865.03794 q 2.75145,-11.43206 5.15897,-17.5396 2.40751,-6.10753 4.12716,-7.67357 1.89162,-1.72264 4.4711,-1.72264 1.71965,0 2.9234,0.93962 1.37573,0.93962 1.37573,2.34906 0,3.75848 -5.67485,40.2471 -5.67486,36.48863 -11.34971,71.09802 -5.50289,34.45274 -5.67486,35.07923 -1.20375,5.48106 -7.9104,5.48106 -3.26734,0 -4.64306,-1.56599 -1.37572,-1.40949 -1.37572,-5.95095 0,-4.69807 1.37572,-14.72069 1.54769,-10.02272 5.15896,-33.51321 3.78323,-23.64714 7.05057,-46.98106 1.89163,-12.05847 4.98699,-25.52638 z" />
    <path
       inkscape:connector-curvature="0"
       id="path6782"
       style="font-style:oblique;font-variant:normal;font-weight:bold;font-stretch:normal;font-size:medium;line-height:125%;font-family:Purisa;-inkscape-font-specification:'Purisa, Bold Oblique';text-align:center;letter-spacing:13.60246181px;word-spacing:0px;writing-mode:lr-tb;text-anchor:middle;fill:#000000;fill-opacity:1;stroke:none;stroke-width:1px;stroke-linecap:butt;stroke-linejoin:miter;stroke-opacity:1"
       d="m 282.06087,902.30958 q 15.99277,0 21.83959,4.85472 6.01878,4.6981 6.01878,14.25092 0,16.44337 -13.58526,37.58486 -13.58526,21.14144 -30.95375,28.97168 -14.44508,6.42075 -28.54624,6.42075 -9.63006,0 -17.54045,-2.97548 -7.73844,-2.81888 -11.86561,-8.30003 -7.22254,-9.39623 -7.22254,-17.53957 0,-4.54156 1.54769,-11.27551 4.47109,-19.4188 25.62282,-33.51312 17.19654,-11.27545 28.20231,-14.87733 11.00578,-3.60189 26.48266,-3.60189 z m 13.24132,22.55092 q 0,-2.97547 -4.64306,-5.32452 -4.64307,-2.50566 -9.63005,-2.50566 -1.0318,0 -2.92341,0.31321 -1.71966,0.1566 -5.5029,0.62641 -3.61127,0.31321 -7.73843,0.62642 -5.84682,0.4698 -9.80202,2.03584 -3.9552,1.40943 -10.31792,5.63773 -13.06936,8.61319 -19.77601,16.91319 -6.70664,8.14337 -6.70664,18.00945 0,9.08293 7.05057,14.72068 7.05058,5.48116 19.08815,5.48116 14.10115,0 29.75,-16.28677 15.82079,-16.4434 20.63583,-37.27167 0.51589,-1.87925 0.51589,-2.97547 z" />
    <path
       inkscape:connector-curvature="0"
       id="path6784"
       style="font-style:oblique;font-variant:normal;font-weight:bold;font-stretch:normal;font-size:medium;line-height:125%;font-family:Purisa;-inkscape-font-specification:'Purisa, Bold Oblique';text-align:center;letter-spacing:13.60246181px;word-spacing:0px;writing-mode:lr-tb;text-anchor:middle;fill:#000000;fill-opacity:1;stroke:none;stroke-width:1px;stroke-linecap:butt;stroke-linejoin:miter;stroke-opacity:1"
       d="m 417.22796,902.30958 q 15.99278,0 21.83959,4.85472 6.01878,4.6981 6.01878,14.25092 0,16.44337 -13.58525,37.58486 -13.58526,21.14144 -30.95375,28.97168 -14.44509,6.42075 -28.54624,6.42075 -9.63006,0 -17.54046,-2.97548 -7.73844,-2.81888 -11.86561,-8.30003 -7.22254,-9.39623 -7.22254,-17.53957 0,-4.54156 1.54769,-11.27551 4.4711,-19.4188 25.62283,-33.51312 17.19652,-11.27545 28.20231,-14.87733 11.00577,-3.60189 26.48265,-3.60189 z m 13.24133,22.55092 q 0,-2.97547 -4.64307,-5.32452 -4.64306,-2.50566 -9.63006,-2.50566 -1.03179,0 -2.9234,0.31321 -1.71966,0.1566 -5.50289,0.62641 -3.61127,0.31321 -7.73843,0.62642 -5.84683,0.4698 -9.80203,2.03584 -3.95521,1.40943 -10.31792,5.63773 -13.06935,8.61319 -19.77601,16.91319 -6.70665,8.14337 -6.70665,18.00945 0,9.08293 7.05059,14.72068 7.05057,5.48116 19.08814,5.48116 14.10116,0 29.74999,-16.28677 15.82081,-16.4434 20.63584,-37.27167 0.5159,-1.87925 0.5159,-2.97547 z" />
    <path
       inkscape:connector-curvature="0"
       id="path6786"
       style="font-style:oblique;font-variant:normal;font-weight:bold;font-stretch:normal;font-size:medium;line-height:125%;font-family:Purisa;-inkscape-font-specification:'Purisa, Bold Oblique';text-align:center;letter-spacing:13.60246181px;word-spacing:0px;writing-mode:lr-tb;text-anchor:middle;fill:#000000;fill-opacity:1;stroke:none;stroke-width:1px;stroke-linecap:butt;stroke-linejoin:miter;stroke-opacity:1"
       d="m 535.71446,990.00755 q 0,-2.66228 3.26734,-21.29804 3.4393,-18.63585 3.4393,-27.56225 0,-10.02262 -4.987,-17.8528 -2.92341,-4.6981 -3.95519,-4.6981 -2.75145,0.62641 -19.94798,23.49053 -4.47109,5.95093 -6.01878,12.05847 -0.85983,3.75853 -3.43931,7.8302 -2.57948,4.07167 -6.87861,20.04525 -0.34393,1.40939 -1.20375,4.54146 -0.68787,3.13208 -1.20377,4.54156 -0.34393,1.4094 -1.20375,3.75848 -0.68786,2.34898 -1.37573,3.44527 -0.68786,1.09619 -1.71965,2.34912 -0.85982,1.2528 -2.23555,1.7225 -1.20375,0.6264 -2.75144,0.6264 -4.12717,0 -4.12717,-5.95091 0,-6.89055 6.01879,-32.10365 1.71966,-7.36044 3.26734,-15.19057 1.54768,-7.98679 2.40751,-13.62452 0.85983,-5.63772 1.71965,-11.11885 0.85983,-5.63773 1.5477,-9.23961 0.85982,-3.75848 1.89161,-6.57735 1.0318,-2.97547 2.40751,-4.2283 1.54769,-1.40943 3.43931,-1.40943 3.78323,0 3.78323,10.33583 0,2.66226 -0.34392,7.83018 -0.17197,5.16792 -0.17197,7.04717 1.54768,-2.34905 2.40752,-3.44528 0.85982,-1.09623 1.37572,-1.40943 0.68785,-0.46982 2.57948,-2.34906 1.89162,-2.03584 4.64306,-5.48112 6.01878,-7.20377 8.94219,-8.9264 3.09538,-1.87925 9.4581,-1.87925 6.87861,0 13.06936,7.51697 2.92341,3.44529 3.78323,6.42075 1.03179,2.97547 1.03179,8.29999 0,1.56604 -0.34393,7.51697 l -0.17196,5.79433 q 8.08237,-13.93772 20.11993,-24.74336 12.03758,-10.80565 21.49567,-10.80565 5.84681,0 8.77022,4.85471 3.09538,4.69811 3.26734,11.74527 0,7.67357 -6.53468,35.39237 -3.9552,16.91317 -6.36271,24.43021 -2.40751,7.51694 -4.29913,9.70942 -1.71965,2.03579 -4.98699,2.03579 -3.26734,0 -3.26734,-3.28868 0,-2.34898 6.01879,-30.53766 6.19074,-28.18863 6.19074,-37.89806 0,-6.57735 -2.40751,-6.57735 -1.54769,0 -5.33093,3.28868 -3.78323,3.28867 -8.9422,9.86602 -5.15895,6.42075 -10.66184,14.72074 -5.33093,8.29998 -10.66185,19.88864 -5.33092,11.43211 -8.77023,23.17733 -2.57948,8.61323 -7.9104,8.61323 -4.12716,0 -4.12716,-4.69816 z" />
    <path
       inkscape:connector-curvature="0"
       id="path6788"
       style="font-style:oblique;font-variant:normal;font-weight:bold;font-stretch:normal;font-size:medium;line-height:125%;font-family:Purisa;-inkscape-font-specification:'Purisa, Bold Oblique';text-align:center;letter-spacing:13.60246181px;word-spacing:0px;writing-mode:lr-tb;text-anchor:middle;fill:#000000;fill-opacity:1;stroke:none;stroke-width:1px;stroke-linecap:butt;stroke-linejoin:miter;stroke-opacity:1"
       d="m 674.1059,900.27374 q 3.09538,0 3.78323,1.72264 0.85983,1.56603 0.85983,5.01131 0,12.37168 -6.19075,44.78862 -6.01878,32.41698 -8.94219,35.86225 -3.95521,2.50558 -7.91041,2.50558 -2.57948,0 -4.29913,-0.78299 -1.54769,-0.783 -2.06359,-1.40939 -0.34393,-0.78309 -0.34393,-1.25289 0,-3.91507 4.987,-33.51313 5.15895,-29.59807 7.56647,-39.3075 2.23555,-9.3962 6.36272,-11.74525 3.4393,-1.87925 6.19075,-1.87925 z m 0.17196,-32.41694 q 0,-3.91509 3.43931,-6.42074 3.4393,-2.66226 6.19075,-2.66226 2.23554,0 5.33092,1.87924 3.09537,1.72264 3.09537,4.5415 0,2.97547 -2.92341,6.89056 -2.9234,3.91509 -7.05057,3.91509 -3.09538,0 -5.67485,-2.19245 -2.40752,-2.34906 -2.40752,-5.95094 z" />
    <path
       inkscape:connector-curvature="0"
       id="path6790"
       style="font-style:oblique;font-variant:normal;font-weight:bold;font-stretch:normal;font-size:medium;line-height:125%;font-family:Purisa;-inkscape-font-specification:'Purisa, Bold Oblique';text-align:center;letter-spacing:13.60246181px;word-spacing:0px;writing-mode:lr-tb;text-anchor:middle;fill:#000000;fill-opacity:1;stroke:none;stroke-width:1px;stroke-linecap:butt;stroke-linejoin:miter;stroke-opacity:1"
       d="m 794.24482,902.7794 q 6.19076,0 9.63006,6.26414 3.43931,6.10753 3.43931,12.52828 0,12.52829 -9.97399,53.40184 -2.40752,10.33582 -4.81503,14.09429 -2.40751,3.60187 -7.22254,3.60187 -4.12717,0 -4.12717,-3.28867 0,-0.6264 6.01879,-25.5264 6.19075,-25.05654 6.19075,-37.89803 0,-2.81886 -1.0318,-4.6981 -1.03179,-2.03585 -1.89161,-2.50566 -0.68786,-0.62642 -1.0318,-0.62642 -2.75144,0 -13.75722,10.49244 -11.00578,10.49244 -19.26011,21.45468 -8.77023,11.5887 -12.03757,16.91316 -3.09537,5.32456 -6.36271,14.40759 -3.9552,10.64902 -5.5029,13.78109 -1.54768,3.28868 -3.61127,3.28868 -0.68786,0 -1.54768,-0.4698 -0.85983,-0.3132 -2.06359,-1.25289 -1.03179,-0.93959 -1.89162,-2.81887 -0.68786,-1.87919 -0.68786,-4.38487 0,-3.28868 1.0318,-9.86602 1.03179,-6.73395 3.09538,-19.88865 2.06357,-13.15469 3.61127,-27.40561 2.23554,-20.20186 3.78323,-24.58676 2.40752,-6.42075 7.05058,-6.42075 2.23555,0 3.09537,1.40944 1.03179,1.25282 1.03179,5.01131 0,3.75848 -2.57948,27.24902 l -1.89161,17.8528 3.09537,-5.16792 q 6.01879,-10.02262 9.80202,-14.72072 3.78324,-4.69812 13.06937,-13.46791 17.88438,-16.75658 27.34247,-16.75658 z" />
    <path
       inkscape:connector-curvature="0"
       id="path6792"
       style="font-style:oblique;font-variant:normal;font-weight:bold;font-stretch:normal;font-size:medium;line-height:125%;font-family:Purisa;-inkscape-font-specification:'Purisa, Bold Oblique';text-align:center;letter-spacing:13.60246181px;word-spacing:0px;writing-mode:lr-tb;text-anchor:middle;fill:#000000;fill-opacity:1;stroke:none;stroke-width:1px;stroke-linecap:butt;stroke-linejoin:miter;stroke-opacity:1"
       d="m 1044.9938,902.936 q 0,-5.95093 -0.6878,-7.20376 -0.5159,-1.25283 -3.2674,-1.25283 -1.3757,0 -12.7254,1.56603 -11.1777,1.56604 -17.5405,1.56604 -4.1271,0 -11.6936,1.25283 -7.56648,1.09622 -10.48988,1.09622 -4.4711,0 -7.22255,-1.56604 -2.75143,-1.72263 -2.75143,-4.38489 0,-4.38491 6.36271,-5.95094 6.36271,-1.72264 29.57805,-4.69811 35.0809,-4.38489 63.1113,-8.76979 22.0115,-3.28868 26.4826,-3.28868 7.0506,0 12.0375,2.34906 5.1591,2.19245 5.1591,5.32452 0,3.13207 -4.9871,5.95093 -4.987,2.66226 -15.4768,2.66226 -11.1778,0 -25.7948,2.66226 l -12.2096,2.34906 -0.3439,10.80564 q -0.172,6.89055 -3.2674,28.81505 -2.9233,21.9245 -5.8467,40.40372 l -2.7515,18.47925 q -1.8916,7.51695 -8.7702,7.51695 -3.4393,0 -4.987,-2.50568 -1.5477,-2.50568 -1.5477,-8.76983 0,-8.14334 4.815,-39.46405 4.815,-31.32072 4.815,-44.94522 z" />
    <path
       inkscape:connector-curvature="0"
       id="path6794"
       style="font-style:oblique;font-variant:normal;font-weight:bold;font-stretch:normal;font-size:medium;line-height:125%;font-family:Purisa;-inkscape-font-specification:'Purisa, Bold Oblique';text-align:center;letter-spacing:13.60246181px;word-spacing:0px;writing-mode:lr-tb;text-anchor:middle;fill:#000000;fill-opacity:1;stroke:none;stroke-width:1px;stroke-linecap:butt;stroke-linejoin:miter;stroke-opacity:1"
       d="m 1218.4473,957.90389 q 6.7067,-4.22834 9.2862,-4.22834 2.5795,0 2.5795,2.34906 0,3.13207 -6.5347,10.17922 -6.3627,6.89055 -13.5853,11.74531 -22.6994,15.03388 -43.1633,15.03388 -14.2731,0 -24.591,-8.76973 -10.3179,-8.92643 -10.3179,-24.74341 0,-13.1547 6.0188,-23.17732 6.0188,-9.70942 20.9798,-20.20186 14.9609,-10.64904 26.4826,-10.64904 2.9234,0 8.9422,0.46981 9.1141,0.62641 12.7254,1.72263 3.6113,0.93963 7.9104,3.91509 4.1272,2.97547 7.0506,7.98679 3.0954,5.01131 3.0954,9.55282 0,3.28867 -1.7196,5.95093 -1.7198,2.50565 -3.9552,4.07169 -2.2356,1.56604 -6.3628,2.97547 -4.1271,1.25283 -7.2225,1.87924 -2.9235,0.62642 -7.7384,1.40943 -17.3686,2.97547 -35.253,3.91509 l -15.1329,0.62642 -0.8598,4.07168 q -0.6879,3.44525 -0.6879,4.69814 0,7.36034 8.0824,14.72068 7.3945,6.89055 17.0245,6.89055 7.5665,0 17.0246,-4.07167 9.4581,-4.22827 16.3368,-9.23963 7.0505,-5.01126 13.5851,-9.08293 z m -7.7384,-27.71887 q 0.6879,-0.78302 0.6879,-1.40943 0,-0.62642 -0.8599,-1.56604 -0.8598,-0.93962 -3.0953,-2.81887 l -2.0636,-1.87923 q -4.4711,-3.75849 -6.7066,-4.69812 -2.2356,-0.93962 -6.5347,-0.93962 -8.5982,0 -12.8975,1.25283 -4.2991,1.09623 -9.63,5.01132 -16.3367,12.05847 -17.0245,15.34714 l -0.172,-0.1566 q 0.6878,0.1566 3.0954,0.1566 16.6807,0 47.4624,-5.32451 3.0954,-0.46981 5.1589,-1.40943 2.0636,-0.93963 2.5795,-1.56604 z" />
    <path
       inkscape:connector-curvature="0"
       id="path6796"
       style="font-style:oblique;font-variant:normal;font-weight:bold;font-stretch:normal;font-size:medium;line-height:125%;font-family:Purisa;-inkscape-font-specification:'Purisa, Bold Oblique';text-align:center;letter-spacing:13.60246181px;word-spacing:0px;writing-mode:lr-tb;text-anchor:middle;fill:#000000;fill-opacity:1;stroke:none;stroke-width:1px;stroke-linecap:butt;stroke-linejoin:miter;stroke-opacity:1"
       d="m 1277.3989,975.75665 q 0,1.87929 3.0954,3.13208 3.2673,1.25279 5.8467,1.25279 3.7833,0 9.8021,-1.72259 6.1908,-1.72268 10.4899,-3.28867 l 4.1271,-1.72269 q 0.5159,-2.03578 7.3945,-6.57734 7.0506,-4.54147 7.0506,-5.48107 0,-0.78309 -1.0317,-1.87928 -0.8599,-1.09619 -4.9871,-2.34908 -3.9552,-1.25279 -10.6618,-1.25279 -14.6171,0 -22.8714,6.73395 -8.2543,6.73394 -8.2543,13.15469 z m 72.9133,-51.36597 q 0,4.2283 -4.815,26.3094 -4.8151,22.0811 -6.0188,32.73012 -1.2038,3.60187 -4.4711,6.26415 -3.2674,2.50568 -4.9871,2.50568 -5.3309,0 -5.3309,-9.55283 0,-1.09619 0.5159,-7.67354 -6.8786,5.79426 -18.9161,11.27541 -12.0377,5.32456 -19.4322,5.32456 -4.815,0 -11.3497,-1.40949 -6.3627,-1.40939 -8.9421,-3.44527 -2.5795,-2.19238 -2.5795,-8.14334 0,-11.27551 6.3627,-17.53966 6.3628,-6.26405 19.4321,-11.58861 13.7572,-5.79434 24.9349,-5.79434 4.815,0 7.7385,1.09623 2.9234,1.09623 4.2991,2.66225 1.5477,1.40944 1.7197,1.40944 2.5795,0.46981 4.2991,2.03585 3.2673,-13.78112 3.2673,-22.23771 0,-11.11885 -6.7066,-11.11885 -8.2543,0 -18.5723,2.97546 -10.1459,2.97547 -18.5722,6.10755 -8.2543,2.97546 -11.6936,2.97546 -3.6113,0 -3.6113,-2.81886 0,-0.1566 0,-0.3132 0.172,-0.31321 0.172,-0.46982 0.6878,-2.66226 2.2355,-4.5415 1.5477,-2.03585 5.159,-3.60189 3.7832,-1.72263 6.3626,-2.66226 2.7515,-0.93962 9.8021,-2.97546 7.0506,-2.03585 11.1777,-3.44528 10.3179,-3.28867 18.9163,-3.28867 13.9291,0 18.0563,11.90187 1.5477,3.91509 1.5477,7.04715 z" />
    <path
       inkscape:connector-curvature="0"
       id="path6798"
       style="font-style:oblique;font-variant:normal;font-weight:bold;font-stretch:normal;font-size:medium;line-height:125%;font-family:Purisa;-inkscape-font-specification:'Purisa, Bold Oblique';text-align:center;letter-spacing:13.60246181px;word-spacing:0px;writing-mode:lr-tb;text-anchor:middle;fill:#000000;fill-opacity:1;stroke:none;stroke-width:1px;stroke-linecap:butt;stroke-linejoin:miter;stroke-opacity:1"
       d="m 1411.7572,910.92278 q 0,0.15661 -0.3439,1.87924 -0.172,1.56604 -0.6878,4.3849 -0.344,2.81887 -0.8599,6.42075 -0.3439,3.60188 -0.6878,8.61319 -0.172,5.01131 -0.172,10.17923 l 0,3.13208 q 2.2355,-2.03585 5.3309,-5.32453 8.5982,-9.70941 22.1835,-17.38298 13.5853,-7.83018 22.0116,-7.83018 4.2991,0 6.1908,1.87923 1.8916,1.87925 1.8916,3.75849 0,3.44528 -9.1142,6.26414 -11.3497,3.60189 -26.9985,17.69621 -15.4769,14.09434 -20.9798,26.46604 -6.8786,15.66028 -10.4899,20.98484 -3.4393,5.32456 -7.7384,5.32456 -6.0188,0 -6.0188,-6.73405 0,-1.56599 1.2037,-12.05841 1.3758,-10.64902 4.1272,-27.56224 2.7514,-16.91318 5.6749,-29.75467 1.2037,-5.16792 2.5795,-7.98679 1.5476,-2.97547 4.643,-5.16791 2.0636,-1.40944 4.1272,-1.40944 4.1271,0 4.1271,4.2283 z" />
    <path
       inkscape:connector-curvature="0"
       id="path6800"
       style="font-style:oblique;font-variant:normal;font-weight:bold;font-stretch:normal;font-size:medium;line-height:125%;font-family:Purisa;-inkscape-font-specification:'Purisa, Bold Oblique';text-align:center;letter-spacing:13.60246181px;word-spacing:0px;writing-mode:lr-tb;text-anchor:middle;fill:#000000;fill-opacity:1;stroke:none;stroke-width:1px;stroke-linecap:butt;stroke-linejoin:miter;stroke-opacity:1"
       d="m 1509.7799,975.75665 q 0,1.87929 3.0954,3.13208 3.2674,1.25279 5.8468,1.25279 3.7832,0 9.802,-1.72259 6.1908,-1.72268 10.4899,-3.28867 l 4.1272,-1.72269 q 0.5158,-2.03578 7.3945,-6.57734 7.0505,-4.54147 7.0505,-5.48107 0,-0.78309 -1.0317,-1.87928 -0.8598,-1.09619 -4.9871,-2.34908 -3.9552,-1.25279 -10.6618,-1.25279 -14.6171,0 -22.8714,6.73395 -8.2543,6.73394 -8.2543,13.15469 z m 72.9133,-51.36597 q 0,4.2283 -4.815,26.3094 -4.8151,22.0811 -6.0188,32.73012 -1.2038,3.60187 -4.4711,6.26415 -3.2674,2.50568 -4.9871,2.50568 -5.3308,0 -5.3308,-9.55283 0,-1.09619 0.5158,-7.67354 -6.8786,5.79426 -18.9161,11.27541 -12.0375,5.32456 -19.4322,5.32456 -4.8149,0 -11.3496,-1.40949 -6.3627,-1.40939 -8.9422,-3.44527 -2.5795,-2.19238 -2.5795,-8.14334 0,-11.27551 6.3627,-17.53966 6.3628,-6.26405 19.4321,-11.58861 13.7572,-5.79434 24.935,-5.79434 4.8151,0 7.7384,1.09623 2.9234,1.09623 4.2992,2.66225 1.5476,1.40944 1.7196,1.40944 2.5795,0.46981 4.2991,2.03585 3.2674,-13.78112 3.2674,-22.23771 0,-11.11885 -6.7067,-11.11885 -8.2543,0 -18.5722,2.97546 -10.146,2.97547 -18.5723,6.10755 -8.2543,2.97546 -11.6936,2.97546 -3.6113,0 -3.6113,-2.81886 0,-0.1566 0,-0.3132 0.172,-0.31321 0.172,-0.46982 0.6878,-2.66226 2.2355,-4.5415 1.5477,-2.03585 5.159,-3.60189 3.7832,-1.72263 6.3627,-2.66226 2.7514,-0.93962 9.802,-2.97546 7.0506,-2.03585 11.1777,-3.44528 10.318,-3.28867 18.9163,-3.28867 13.9291,0 18.0563,11.90187 1.5477,3.91509 1.5477,7.04715 z" />
    <path
       inkscape:connector-curvature="0"
       id="path6802"
       style="font-style:oblique;font-variant:normal;font-weight:bold;font-stretch:normal;font-size:medium;line-height:125%;font-family:Purisa;-inkscape-font-specification:'Purisa, Bold Oblique';text-align:center;letter-spacing:13.60246181px;word-spacing:0px;writing-mode:lr-tb;text-anchor:middle;fill:#000000;fill-opacity:1;stroke:none;stroke-width:1px;stroke-linecap:butt;stroke-linejoin:miter;stroke-opacity:1"
       d="m 1621.6107,913.58504 q 0,-2.66226 2.5795,-5.63773 2.7514,-3.13207 5.6748,-3.13207 2.7515,0 4.8151,2.81886 2.2355,2.81887 2.2355,8.9264 0,2.66227 -0.6879,7.67358 -0.5158,4.85472 -0.5158,6.57735 0,2.03585 0.5158,3.13207 0.8598,2.03585 1.2038,9.70942 0.516,7.51698 0.6879,17.06975 0.3439,9.55283 0.6879,13.4679 2.9234,-4.54147 7.5664,-11.74521 4.643,-7.36035 6.5347,-10.17924 2.0635,-2.97547 4.987,-6.73395 2.9234,-3.75849 5.3309,-5.01132 2.4075,-1.25282 4.987,-1.25282 4.643,0 11.1777,7.36036 6.7067,7.36036 8.5983,12.99809 1.3757,4.69807 4.6431,9.23963 2.4074,-3.91507 15.1329,-30.85091 12.8974,-27.09242 17.3685,-31.00751 2.4075,-1.87924 4.6431,-1.87924 2.4075,0 4.1271,1.56603 1.7197,1.40944 1.7197,3.44528 0,1.25283 -1.5477,3.75848 -1.3757,2.50567 -5.5029,10.02264 -3.9551,7.51697 -8.4263,17.8528 -5.8468,13.62453 -14.4451,29.12821 -8.4263,15.50378 -11.0058,17.38307 -1.8915,1.40939 -5.1589,1.40939 -4.2991,0 -7.0506,-4.85467 -2.7514,-4.85476 -10.3179,-24.11701 -1.3757,-3.13207 -5.1589,-6.57731 -1.0319,1.09625 -3.2674,4.38493 -2.2356,3.13207 -7.9105,11.27541 -5.5028,7.98684 -12.2095,17.22637 -6.3627,8.61323 -11.6936,8.61323 -2.9234,0 -4.643,-2.19248 -1.8917,-2.81888 -2.5795,-12.9981 -0.6879,-10.33582 -0.8598,-23.64712 -0.172,-13.31128 -0.688,-17.85278 -0.5158,-4.85471 -0.5158,-9.39622 0,-2.66226 0.3439,-4.22829 0.3439,-1.72264 0.3439,-2.81886 0,-1.87925 -0.8598,-4.69812 -0.8598,-2.97546 -0.8598,-4.22829 z" />
    <path
       inkscape:connector-curvature="0"
       id="path6804"
       style="font-style:oblique;font-variant:normal;font-weight:bold;font-stretch:normal;font-size:medium;line-height:125%;font-family:Purisa;-inkscape-font-specification:'Purisa, Bold Oblique';text-align:center;letter-spacing:13.60246181px;word-spacing:0px;writing-mode:lr-tb;text-anchor:middle;fill:#000000;fill-opacity:1;stroke:none;stroke-width:1px;stroke-linecap:butt;stroke-linejoin:miter;stroke-opacity:1"
       d="m 1771.3815,975.75665 q 0,1.87929 3.0954,3.13208 3.2674,1.25279 5.8468,1.25279 3.7832,0 9.802,-1.72259 6.1908,-1.72268 10.4899,-3.28867 l 4.1272,-1.72269 q 0.5158,-2.03578 7.3945,-6.57734 7.0505,-4.54147 7.0505,-5.48107 0,-0.78309 -1.0317,-1.87928 -0.8598,-1.09619 -4.9871,-2.34908 -3.9552,-1.25279 -10.6618,-1.25279 -14.6171,0 -22.8714,6.73395 -8.2543,6.73394 -8.2543,13.15469 z m 72.9133,-51.36597 q 0,4.2283 -4.815,26.3094 -4.8151,22.0811 -6.0188,32.73012 -1.2038,3.60187 -4.4711,6.26415 -3.2674,2.50568 -4.9871,2.50568 -5.3308,0 -5.3308,-9.55283 0,-1.09619 0.5158,-7.67354 -6.8786,5.79426 -18.9161,11.27541 -12.0376,5.32456 -19.4322,5.32456 -4.815,0 -11.3497,-1.40949 -6.3626,-1.40939 -8.9421,-3.44527 -2.5795,-2.19238 -2.5795,-8.14334 0,-11.27551 6.3627,-17.53966 6.3628,-6.26405 19.4321,-11.58861 13.7572,-5.79434 24.9349,-5.79434 4.8151,0 7.7385,1.09623 2.9234,1.09623 4.2992,2.66225 1.5476,1.40944 1.7196,1.40944 2.5795,0.46981 4.2991,2.03585 3.2673,-13.78112 3.2673,-22.23771 0,-11.11885 -6.7066,-11.11885 -8.2543,0 -18.5722,2.97546 -10.146,2.97547 -18.5723,6.10755 -8.2543,2.97546 -11.6936,2.97546 -3.6113,0 -3.6113,-2.81886 0,-0.1566 0,-0.3132 0.172,-0.31321 0.172,-0.46982 0.6878,-2.66226 2.2355,-4.5415 1.5477,-2.03585 5.159,-3.60189 3.7832,-1.72263 6.3627,-2.66226 2.7514,-0.93962 9.802,-2.97546 7.0506,-2.03585 11.1777,-3.44528 10.3179,-3.28867 18.9163,-3.28867 13.9291,0 18.0563,11.90187 1.5477,3.91509 1.5477,7.04715 z" />
    <path
       inkscape:connector-curvature="0"
       id="path6806"
       style="font-style:oblique;font-variant:normal;font-weight:bold;font-stretch:normal;font-size:medium;line-height:125%;font-family:Purisa;-inkscape-font-specification:'Purisa, Bold Oblique';text-align:center;letter-spacing:13.60246181px;word-spacing:0px;writing-mode:lr-tb;text-anchor:middle;fill:#000000;fill-opacity:1;stroke:none;stroke-width:1px;stroke-linecap:butt;stroke-linejoin:miter;stroke-opacity:1"
       d="m 1888.8872,983.74339 q -7.0506,0 -10.146,-4.69806 -3.0954,-4.85476 -3.0954,-10.02262 0,-5.16796 3.6113,-20.04527 5.8468,-24.89996 9.458,-31.0075 3.2674,-5.48112 7.5666,-5.48112 4.643,0 4.643,4.6981 0,2.97547 -4.987,22.55091 -4.987,19.57545 -4.987,26.1528 0,4.38487 1.7197,4.38487 2.4075,0 11.6936,-6.73395 9.2861,-6.73395 14.2732,-13.15468 6.1907,-7.98678 11.6936,-19.57544 5.5029,-11.58866 9.1142,-17.38299 3.7832,-5.79434 9.1141,-5.79434 2.4075,0 4.1271,1.40944 1.7197,1.40943 1.7197,3.75848 0,2.81887 -4.1271,10.02264 -3.9553,7.04715 -8.9423,18.94902 -4.9869,11.74527 -6.7066,25.21314 l 0.1719,1.72269 3.4394,-1.25289 q 4.1271,-1.87919 7.9103,-1.87919 5.8469,0 5.8469,3.75847 0,5.16796 -10.6619,9.70943 l -6.5347,2.50568 -2.7513,15.66028 q -6.5347,23.96041 -8.7703,28.50191 -2.0635,4.6981 -7.9104,4.6981 -4.2991,0 -12.2096,-2.9754 -4.4711,-1.8793 -6.8785,-4.0718 -2.2356,-2.1924 -3.7832,-6.5774 -2.2356,-6.5773 -2.2356,-11.432 0,-3.7584 1.0317,-6.42072 1.0318,-2.66228 2.0637,-3.91508 1.0317,-1.25288 3.9552,-3.75847 2.9234,-2.66228 4.471,-4.38496 2.5795,-2.81888 7.2226,-4.69807 4.643,-1.87928 4.9869,-2.03588 1.2038,-0.78299 5.159,-2.66228 0.5159,-1.40939 0.5159,-5.63766 0,-1.40948 -0.3439,-2.97547 -0.6878,0.46979 -4.815,3.60187 -4.1273,2.97548 -7.5665,5.16796 -3.2673,2.03579 -8.4263,4.07167 -5.1589,2.03578 -9.63,2.03578 z m 24.247,32.57351 q 3.4393,-4.8546 3.4393,-20.0452 l 0,-1.40939 q 0,-1.25289 0.5159,-4.22837 l -1.8916,1.87929 q -4.471,4.38486 -7.2225,8.61327 -2.7515,4.2282 -2.7515,5.7942 0,2.0359 3.0954,5.3246 3.0954,3.2886 4.815,4.0716 z" />
    <path
       inkscape:connector-curvature="0"
       id="path6808"
       style="font-style:oblique;font-variant:normal;font-weight:bold;font-stretch:normal;font-size:medium;line-height:125%;font-family:Purisa;-inkscape-font-specification:'Purisa, Bold Oblique';text-align:center;letter-spacing:13.60246181px;word-spacing:0px;writing-mode:lr-tb;text-anchor:middle;fill:#000000;fill-opacity:1;stroke:none;stroke-width:1px;stroke-linecap:butt;stroke-linejoin:miter;stroke-opacity:1"
       d="m 1986.9098,983.5868 q 0,-4.07167 2.4075,-6.57735 2.4075,-2.66219 4.815,-2.66219 4.2991,0 6.3628,5.48106 1.2037,3.28868 6.7066,6.26416 5.6748,2.81887 11.1778,2.81887 7.0505,0 14.789,-7.51694 7.7384,-7.51704 7.7384,-10.64911 0,-5.32447 -7.3945,-7.51695 -5.5029,-1.56599 -11.8656,-3.91507 -6.1908,-2.50568 -9.2862,-3.13207 -4.471,-0.9396 -11.1777,-5.79434 -6.7066,-5.01131 -6.7066,-10.80563 0,-6.73396 12.7254,-17.2264 12.8974,-10.64904 28.2024,-13.46791 l 17.5403,-1.40943 q 4.6432,0 6.7067,1.09623 2.2356,0.93962 4.987,4.6981 3.7833,5.01132 3.7833,8.29999 0,1.72264 -1.3758,3.13207 -1.3757,1.40944 -3.9552,1.40944 -2.7515,0 -4.4711,-1.09623 -1.5476,-1.25283 -2.4075,-2.50565 -0.6879,-1.40944 -2.9234,-2.50566 -2.0636,-1.25283 -5.6748,-1.25283 -7.5665,0 -17.0246,4.0717 -9.4581,3.91508 -15.4769,8.45658 -5.8468,4.38491 -5.8468,6.26414 0,2.03586 4.2991,5.01132 4.4711,2.81886 13.0694,5.32452 14.789,4.3849 20.8078,8.29999 6.1908,3.91507 6.1908,10.17922 0,3.44527 -2.0637,8.92643 -2.0636,5.32446 -4.471,8.61313 -3.6113,5.16796 -12.0377,10.64912 -8.2543,5.63769 -15.6488,5.63769 -5.3308,0 -13.5853,-1.40942 -8.2543,-1.2528 -12.3814,-3.13208 -2.7515,-1.40939 -4.643,-4.85466 -1.8917,-3.44537 -1.8917,-7.20384 z" />
    <path
       inkscape:connector-curvature="0"
       id="path6747"
       style="font-style:oblique;font-variant:normal;font-weight:bold;font-stretch:normal;font-size:medium;line-height:125%;font-family:Purisa;-inkscape-font-specification:'Purisa, Bold Oblique';text-align:center;letter-spacing:13.60246181px;word-spacing:0px;writing-mode:lr-tb;text-anchor:middle;fill:url(#linearGradient6814);fill-opacity:1;stroke:url(#linearGradient6816);stroke-width:8.38757706;stroke-linecap:butt;stroke-linejoin:miter;stroke-miterlimit:4;stroke-dasharray:none;stroke-opacity:0"
       d="m 174.22196,864.2535 q 2.75145,-11.43206 5.15897,-17.53961 2.40751,-6.10753 4.12716,-7.67357 1.89162,-1.72263 4.47109,-1.72263 1.71966,0 2.92341,0.93961 1.37573,0.93962 1.37573,2.34906 0,3.75848 -5.67485,40.24711 -5.67486,36.48863 -11.34971,71.09801 -5.50289,34.45276 -5.67486,35.07916 -1.20376,5.48115 -7.91041,5.48115 -3.26734,0 -4.64305,-1.56599 -1.37572,-1.40948 -1.37572,-5.95095 0,-4.69816 1.37572,-14.72078 1.54769,-10.02263 5.15896,-33.51313 3.78323,-23.64714 7.05057,-46.98107 1.89162,-12.05847 4.98699,-25.52637 z" />
    <path
       inkscape:connector-curvature="0"
       id="path6749"
       style="font-style:oblique;font-variant:normal;font-weight:bold;font-stretch:normal;font-size:medium;line-height:125%;font-family:Purisa;-inkscape-font-specification:'Purisa, Bold Oblique';text-align:center;letter-spacing:13.60246181px;word-spacing:0px;writing-mode:lr-tb;text-anchor:middle;fill:url(#linearGradient6818);fill-opacity:1;stroke:url(#linearGradient6820);stroke-width:8.38757706;stroke-linecap:butt;stroke-linejoin:miter;stroke-miterlimit:4;stroke-dasharray:none;stroke-opacity:0"
       d="m 296.5078,901.52514 q 15.99277,0 21.83958,4.85471 6.01879,4.6981 6.01879,14.25092 0,16.44337 -13.58526,37.58489 -13.58526,21.14144 -30.95375,28.97158 -14.44509,6.42075 -28.54624,6.42075 -9.63006,0 -17.54045,-2.97538 -7.73845,-2.81888 -11.86561,-8.30004 -7.22254,-9.39622 -7.22254,-17.53956 0,-4.54157 1.54769,-11.27549 4.47109,-19.41884 25.62282,-33.51316 17.19654,-11.27546 28.20231,-14.87734 11.00578,-3.60188 26.48266,-3.60188 z m 13.24132,22.55091 q 0,-2.97546 -4.64307,-5.32452 -4.64306,-2.50566 -9.63004,-2.50566 -1.0318,0 -2.92341,0.31321 -1.71966,0.1566 -5.5029,0.62642 -3.61127,0.3132 -7.73843,0.62641 -5.84682,0.46981 -9.80202,2.03585 -3.95521,1.40943 -10.31792,5.63772 -13.06936,8.6132 -19.77601,16.91318 -6.70664,8.14339 -6.70664,18.00938 0,9.08303 7.05057,14.72079 7.05058,5.48106 19.08814,5.48106 14.10116,0 29.75,-16.28668 15.8208,-16.44342 20.63584,-37.27169 0.51589,-1.87924 0.51589,-2.97547 z" />
    <path
       inkscape:connector-curvature="0"
       id="path6751"
       style="font-style:oblique;font-variant:normal;font-weight:bold;font-stretch:normal;font-size:medium;line-height:125%;font-family:Purisa;-inkscape-font-specification:'Purisa, Bold Oblique';text-align:center;letter-spacing:13.60246181px;word-spacing:0px;writing-mode:lr-tb;text-anchor:middle;fill:url(#linearGradient6822);fill-opacity:1;stroke:url(#linearGradient6824);stroke-width:8.38757706;stroke-linecap:butt;stroke-linejoin:miter;stroke-miterlimit:4;stroke-dasharray:none;stroke-opacity:0"
       d="m 431.67489,901.52514 q 15.99277,0 21.83959,4.85471 6.01878,4.6981 6.01878,14.25092 0,16.44337 -13.58525,37.58489 -13.58526,21.14144 -30.95375,28.97158 -14.44509,6.42075 -28.54624,6.42075 -9.63006,0 -17.54046,-2.97538 -7.73844,-2.81888 -11.86561,-8.30004 -7.22254,-9.39622 -7.22254,-17.53956 0,-4.54157 1.54769,-11.27549 4.4711,-19.41884 25.62283,-33.51316 17.19652,-11.27546 28.20231,-14.87734 11.00577,-3.60188 26.48265,-3.60188 z m 13.24133,22.55091 q 0,-2.97546 -4.64307,-5.32452 -4.64306,-2.50566 -9.63006,-2.50566 -1.03179,0 -2.92341,0.31321 -1.71965,0.1566 -5.50288,0.62642 -3.61127,0.3132 -7.73844,0.62641 -5.84682,0.46981 -9.80203,2.03585 -3.9552,1.40943 -10.31791,5.63772 -13.06936,8.6132 -19.77601,16.91318 -6.70665,8.14339 -6.70665,18.00938 0,9.08303 7.05058,14.72079 7.05058,5.48106 19.08815,5.48106 14.10115,0 29.74999,-16.28668 15.82081,-16.44342 20.63583,-37.27169 0.51591,-1.87924 0.51591,-2.97547 z" />
    <path
       inkscape:connector-curvature="0"
       id="path6753"
       style="font-style:oblique;font-variant:normal;font-weight:bold;font-stretch:normal;font-size:medium;line-height:125%;font-family:Purisa;-inkscape-font-specification:'Purisa, Bold Oblique';text-align:center;letter-spacing:13.60246181px;word-spacing:0px;writing-mode:lr-tb;text-anchor:middle;fill:url(#linearGradient6826);fill-opacity:1;stroke:url(#linearGradient6828);stroke-width:8.38757706;stroke-linecap:butt;stroke-linejoin:miter;stroke-miterlimit:4;stroke-dasharray:none;stroke-opacity:0"
       d="m 550.16138,989.22312 q 0,-2.66228 3.26734,-21.29804 3.4393,-18.63586 3.4393,-27.56226 0,-10.02262 -4.98699,-17.8528 -2.92341,-4.69811 -3.95519,-4.69811 -2.75145,0.62641 -19.94798,23.49053 -4.4711,5.95093 -6.01878,12.05848 -0.85983,3.75845 -3.43931,7.83021 -2.57948,4.07167 -6.87861,20.04525 -0.34393,1.40939 -1.20376,4.54147 -0.68786,3.13207 -1.20376,4.54146 -0.34393,1.40949 -1.20375,3.75857 -0.68787,2.34898 -1.37573,3.44527 -0.68786,1.0962 -1.71965,2.34899 -0.85983,1.25286 -2.23555,1.72266 -1.20375,0.6264 -2.75144,0.6264 -4.12717,0 -4.12717,-5.95093 0,-6.89055 6.01879,-32.10375 1.71965,-7.36035 3.26734,-15.19051 1.54768,-7.98678 2.4075,-13.6245 0.85984,-5.63773 1.71966,-11.11886 0.85983,-5.63772 1.5477,-9.23961 0.85982,-3.75848 1.89161,-6.57734 1.03179,-2.97547 2.40751,-4.2283 1.54769,-1.40943 3.43931,-1.40943 3.78323,0 3.78323,10.33583 0,2.66226 -0.34392,7.83018 -0.17197,5.16792 -0.17197,7.04716 1.54768,-2.34906 2.40752,-3.44528 0.85982,-1.09622 1.37572,-1.40943 0.68785,-0.46981 2.57948,-2.34905 1.89161,-2.03585 4.64306,-5.48113 6.01878,-7.20376 8.94219,-8.9264 3.09538,-1.87924 9.4581,-1.87924 6.87861,0 13.06936,7.51697 2.92341,3.44527 3.78323,6.42074 1.03179,2.97547 1.03179,8.29999 0,1.56603 -0.34393,7.51697 l -0.17196,5.79433 q 8.08236,-13.93771 20.11993,-24.74336 12.03758,-10.80564 21.49567,-10.80564 5.84681,0 8.77022,4.85471 3.09538,4.6981 3.26734,11.74527 0,7.67357 -6.53468,35.39238 -3.9552,16.91317 -6.36271,24.43021 -2.40751,7.51694 -4.29913,9.70943 -1.71966,2.03578 -4.987,2.03578 -3.26734,0 -3.26734,-3.28867 0,-2.34908 6.01879,-30.53767 6.19075,-28.18865 6.19075,-37.89807 0,-6.57735 -2.40752,-6.57735 -1.54768,0 -5.33092,3.28867 -3.78323,3.28868 -8.9422,9.86603 -5.15895,6.42075 -10.66184,14.72073 -5.33093,8.29999 -10.66185,19.88867 -5.33092,11.43201 -8.77023,23.17732 -2.57948,8.61323 -7.9104,8.61323 -4.12717,0 -4.12717,-4.69816 z" />
    <path
       inkscape:connector-curvature="0"
       id="path6755"
       style="font-style:oblique;font-variant:normal;font-weight:bold;font-stretch:normal;font-size:medium;line-height:125%;font-family:Purisa;-inkscape-font-specification:'Purisa, Bold Oblique';text-align:center;letter-spacing:13.60246181px;word-spacing:0px;writing-mode:lr-tb;text-anchor:middle;fill:url(#linearGradient6830);fill-opacity:1;stroke:url(#linearGradient6832);stroke-width:8.38757706;stroke-linecap:butt;stroke-linejoin:miter;stroke-miterlimit:4;stroke-dasharray:none;stroke-opacity:0"
       d="m 688.55283,899.48929 q 3.09538,0 3.78323,1.72264 0.85983,1.56604 0.85983,5.01131 0,12.37169 -6.19075,44.78862 -6.01879,32.41691 -8.9422,35.86218 -3.9552,2.50568 -7.9104,2.50568 -2.57948,0 -4.29913,-0.783 -1.54769,-0.78299 -2.06359,-1.40948 -0.34393,-0.783 -0.34393,-1.2528 0,-3.91507 4.987,-33.51315 5.15895,-29.59807 7.56647,-39.30749 2.23554,-9.39621 6.36272,-11.74527 3.4393,-1.87924 6.19075,-1.87924 z m 0.17196,-32.41693 q 0,-3.91509 3.43931,-6.42074 3.4393,-2.66227 6.19075,-2.66227 2.23554,0 5.33092,1.87924 3.09537,1.72264 3.09537,4.54151 0,2.97546 -2.92341,6.89055 -2.92341,3.91509 -7.05057,3.91509 -3.09538,0 -5.67486,-2.19245 -2.40751,-2.34905 -2.40751,-5.95093 z" />
    <path
       inkscape:connector-curvature="0"
       id="path6757"
       style="font-style:oblique;font-variant:normal;font-weight:bold;font-stretch:normal;font-size:medium;line-height:125%;font-family:Purisa;-inkscape-font-specification:'Purisa, Bold Oblique';text-align:center;letter-spacing:13.60246181px;word-spacing:0px;writing-mode:lr-tb;text-anchor:middle;fill:url(#linearGradient6834);fill-opacity:1;stroke:url(#linearGradient6836);stroke-width:8.38757706;stroke-linecap:butt;stroke-linejoin:miter;stroke-miterlimit:4;stroke-dasharray:none;stroke-opacity:0"
       d="m 808.69175,901.99495 q 6.19076,0 9.63006,6.26414 3.43931,6.10754 3.43931,12.52829 0,12.52828 -9.97399,53.40185 -2.40752,10.33582 -4.81503,14.0943 -2.40752,3.60187 -7.22254,3.60187 -4.12717,0 -4.12717,-3.28868 0,-0.62639 6.01879,-25.5264 6.19074,-25.05655 6.19074,-37.89804 0,-2.81887 -1.03179,-4.69811 -1.03179,-2.03585 -1.89161,-2.50566 -0.68787,-0.62641 -1.0318,-0.62641 -2.75145,0 -13.75722,10.49243 -11.00578,10.49244 -19.26011,21.45469 -8.77023,11.58862 -12.03757,16.91318 -3.09537,5.32455 -6.36271,14.40749 -3.9552,10.64911 -5.5029,13.78119 -1.54768,3.28867 -3.61127,3.28867 -0.68786,0 -1.54769,-0.4698 -0.85982,-0.31329 -2.06358,-1.25288 -1.03179,-0.9396 -1.89162,-2.81888 -0.68786,-1.87919 -0.68786,-4.38487 0,-3.28867 1.03179,-9.86602 1.0318,-6.73395 3.09538,-19.88865 2.06358,-13.1547 3.61127,-27.40563 2.23555,-20.20186 3.78324,-24.58675 2.40751,-6.42075 7.05058,-6.42075 2.23554,0 3.09537,1.40943 1.03179,1.25283 1.03179,5.01132 0,3.75848 -2.57948,27.24901 l -1.89161,17.85281 3.09537,-5.16792 q 6.01878,-10.02263 9.80201,-14.72074 3.78325,-4.6981 13.06937,-13.4679 17.88439,-16.75658 27.34248,-16.75658 z" />
    <path
       inkscape:connector-curvature="0"
       id="path6759"
       style="font-style:oblique;font-variant:normal;font-weight:bold;font-stretch:normal;font-size:medium;line-height:125%;font-family:Purisa;-inkscape-font-specification:'Purisa, Bold Oblique';text-align:center;letter-spacing:13.60246181px;word-spacing:0px;writing-mode:lr-tb;text-anchor:middle;fill:url(#linearGradient6838);fill-opacity:1;stroke:url(#linearGradient6840);stroke-width:8.38757706;stroke-linecap:butt;stroke-linejoin:miter;stroke-miterlimit:4;stroke-dasharray:none;stroke-opacity:0"
       d="m 1059.4408,902.15155 q 0,-5.95093 -0.6879,-7.20376 -0.5159,-1.25283 -3.2673,-1.25283 -1.3757,0 -12.7255,1.56604 -11.1777,1.56604 -17.5404,1.56604 -4.1272,0 -11.6937,1.25282 -7.5664,1.09623 -10.4899,1.09623 -4.47105,0 -7.2225,-1.56604 -2.75144,-1.72264 -2.75144,-4.3849 0,-4.3849 6.36271,-5.95093 6.36273,-1.72265 29.57803,-4.69811 35.0809,-4.3849 63.1113,-8.7698 22.0115,-3.28867 26.4826,-3.28867 7.0506,0 12.0376,2.34905 5.1589,2.19244 5.1589,5.32452 0,3.13207 -4.9869,5.95093 -4.9871,2.66226 -15.4769,2.66226 -11.1778,0 -25.7949,2.66226 l -12.2095,2.34905 -0.3439,10.80565 q -0.1719,6.89056 -3.2673,28.81506 -2.9235,21.9245 -5.8469,40.40373 l -2.7513,18.47916 q -1.8917,7.51704 -8.7703,7.51704 -3.4393,0 -4.987,-2.50568 -1.5477,-2.50568 -1.5477,-8.76983 0,-8.14334 4.8151,-39.46406 4.815,-31.32072 4.815,-44.94523 z" />
    <path
       inkscape:connector-curvature="0"
       id="path6761"
       style="font-style:oblique;font-variant:normal;font-weight:bold;font-stretch:normal;font-size:medium;line-height:125%;font-family:Purisa;-inkscape-font-specification:'Purisa, Bold Oblique';text-align:center;letter-spacing:13.60246181px;word-spacing:0px;writing-mode:lr-tb;text-anchor:middle;fill:url(#linearGradient6842);fill-opacity:1;stroke:url(#linearGradient6844);stroke-width:8.38757706;stroke-linecap:butt;stroke-linejoin:miter;stroke-miterlimit:4;stroke-dasharray:none;stroke-opacity:0"
       d="m 1232.8943,957.11937 q 6.7067,-4.22827 9.2862,-4.22827 2.5794,0 2.5794,2.34908 0,3.13208 -6.5347,10.17922 -6.3627,6.89055 -13.5852,11.74521 -22.6995,15.03399 -43.1633,15.03399 -14.2731,0 -24.591,-8.76983 -10.318,-8.92634 -10.318,-24.74332 0,-13.15471 6.0188,-23.17734 6.0188,-9.70942 20.9797,-20.20186 14.9611,-10.64905 26.4827,-10.64905 2.9235,0 8.9422,0.46982 9.1142,0.62642 12.7255,1.72264 3.6112,0.93962 7.9104,3.91509 4.1271,2.97546 7.0505,7.98678 3.0954,5.01132 3.0954,9.55281 0,3.28868 -1.7197,5.95094 -1.7196,2.50566 -3.9552,4.07169 -2.2355,1.56604 -6.3626,2.97547 -4.1273,1.25283 -7.2226,1.87925 -2.9234,0.62641 -7.7385,1.40942 -17.3684,2.97547 -35.2528,3.91509 l -15.133,0.62642 -0.8598,4.07169 q -0.6879,3.44526 -0.6879,4.69815 0,7.36034 8.0824,14.72069 7.3945,6.89054 17.0246,6.89054 7.5664,0 17.0246,-4.07166 9.458,-4.22827 16.3366,-9.23963 7.0506,-5.01127 13.5853,-9.08303 z m -7.7384,-27.7188 q 0.6878,-0.78302 0.6878,-1.40943 0,-0.62641 -0.8598,-1.56603 -0.8598,-0.93963 -3.0954,-2.81887 l -2.0636,-1.87925 q -4.4711,-3.75848 -6.7067,-4.6981 -2.2354,-0.93962 -6.5346,-0.93962 -8.5983,0 -12.8974,1.25283 -4.2991,1.09622 -9.6301,5.01131 -16.3366,12.05847 -17.0245,15.34715 l -0.1719,-0.1566 q 0.6878,0.1566 3.0952,0.1566 16.6807,0 47.4626,-5.32452 3.0953,-0.46982 5.1589,-1.40943 2.0636,-0.93962 2.5795,-1.56604 z" />
    <path
       inkscape:connector-curvature="0"
       id="path6763"
       style="font-style:oblique;font-variant:normal;font-weight:bold;font-stretch:normal;font-size:medium;line-height:125%;font-family:Purisa;-inkscape-font-specification:'Purisa, Bold Oblique';text-align:center;letter-spacing:13.60246181px;word-spacing:0px;writing-mode:lr-tb;text-anchor:middle;fill:url(#linearGradient6846);fill-opacity:1;stroke:url(#linearGradient6848);stroke-width:8.38757706;stroke-linecap:butt;stroke-linejoin:miter;stroke-miterlimit:4;stroke-dasharray:none;stroke-opacity:0"
       d="m 1291.8458,974.97223 q 0,1.87919 3.0954,3.13207 3.2673,1.2528 5.8468,1.2528 3.7833,0 9.8021,-1.72259 6.1906,-1.72269 10.4898,-3.28868 l 4.1272,-1.72268 q 0.5159,-2.03588 7.3945,-6.57735 7.0506,-4.54147 7.0506,-5.48116 0,-0.78299 -1.0319,-1.87919 -0.8598,-1.09628 -4.9869,-2.34908 -3.9552,-1.25279 -10.6619,-1.25279 -14.617,0 -22.8713,6.73395 -8.2544,6.73395 -8.2544,13.1547 z m 72.9133,-51.36599 q 0,4.22829 -4.8151,26.30939 -4.815,22.08112 -6.0187,32.73014 -1.2038,3.60187 -4.4712,6.26415 -3.2673,2.50568 -4.9869,2.50568 -5.331,0 -5.331,-9.55282 0,-1.0962 0.516,-7.67355 -6.8786,5.79426 -18.9163,11.27542 -12.0375,5.32455 -19.432,5.32455 -4.815,0 -11.3497,-1.40948 -6.3627,-1.40939 -8.9422,-3.44528 -2.5794,-2.19248 -2.5794,-8.14333 0,-11.27551 6.3626,-17.53967 6.3627,-6.26411 19.4321,-11.58864 13.7573,-5.79432 24.935,-5.79432 4.815,0 7.7384,1.09622 2.9235,1.09622 4.2991,2.66226 1.5477,1.40944 1.7196,1.40944 2.5796,0.4698 4.2993,2.03584 3.2673,-13.78111 3.2673,-22.23771 0,-11.11885 -6.7067,-11.11885 -8.2544,0 -18.5722,2.97547 -10.146,2.97547 -18.5723,6.10754 -8.2543,2.97547 -11.6936,2.97547 -3.6113,0 -3.6113,-2.81887 0,-0.1566 0,-0.31321 0.1719,-0.31321 0.1719,-0.4698 0.6879,-2.66226 2.2356,-4.54151 1.5477,-2.03584 5.159,-3.60188 3.7832,-1.72264 6.3627,-2.66226 2.7515,-0.93962 9.802,-2.97547 7.0506,-2.03584 11.1778,-3.44527 10.3179,-3.28869 18.9161,-3.28869 13.9292,0 18.0564,11.90188 1.5477,3.91509 1.5477,7.04716 z" />
    <path
       inkscape:connector-curvature="0"
       id="path6765"
       style="font-style:oblique;font-variant:normal;font-weight:bold;font-stretch:normal;font-size:medium;line-height:125%;font-family:Purisa;-inkscape-font-specification:'Purisa, Bold Oblique';text-align:center;letter-spacing:13.60246181px;word-spacing:0px;writing-mode:lr-tb;text-anchor:middle;fill:url(#linearGradient6850);fill-opacity:1;stroke:url(#linearGradient6852);stroke-width:8.38757706;stroke-linecap:butt;stroke-linejoin:miter;stroke-miterlimit:4;stroke-dasharray:none;stroke-opacity:0"
       d="m 1426.2042,910.13833 q 0,0.15661 -0.3439,1.87925 -0.172,1.56604 -0.6879,4.38489 -0.3439,2.81887 -0.8599,6.42075 -0.3439,3.60189 -0.6878,8.6132 -0.172,5.01131 -0.172,10.17923 l 0,3.13207 q 2.2356,-2.03585 5.331,-5.32452 8.5982,-9.70942 22.1835,-17.383 13.5853,-7.83017 22.0115,-7.83017 4.2992,0 6.1908,1.87924 1.8916,1.87924 1.8916,3.75849 0,3.44527 -9.1141,6.26414 -11.3498,3.60188 -26.9986,17.6962 -15.4769,14.09436 -20.9798,26.46597 -6.8786,15.66037 -10.4899,20.98493 -3.4393,5.32446 -7.7384,5.32446 -6.0187,0 -6.0187,-6.73394 0,-1.56599 1.2037,-12.05841 1.3757,-10.64912 4.1271,-27.56227 2.7515,-16.91318 5.6749,-29.75467 1.2038,-5.16792 2.5794,-7.98679 1.5478,-2.97546 4.6432,-5.16791 2.0635,-1.40944 4.1271,-1.40944 4.1272,0 4.1272,4.2283 z" />
    <path
       inkscape:connector-curvature="0"
       id="path6767"
       style="font-style:oblique;font-variant:normal;font-weight:bold;font-stretch:normal;font-size:medium;line-height:125%;font-family:Purisa;-inkscape-font-specification:'Purisa, Bold Oblique';text-align:center;letter-spacing:13.60246181px;word-spacing:0px;writing-mode:lr-tb;text-anchor:middle;fill:url(#linearGradient6854);fill-opacity:1;stroke:url(#linearGradient6856);stroke-width:8.38757706;stroke-linecap:butt;stroke-linejoin:miter;stroke-miterlimit:4;stroke-dasharray:none;stroke-opacity:0"
       d="m 1524.2268,974.97223 q 0,1.87919 3.0954,3.13207 3.2673,1.2528 5.8468,1.2528 3.7833,0 9.8021,-1.72259 6.1907,-1.72269 10.4899,-3.28868 l 4.1271,-1.72268 q 0.5159,-2.03588 7.3945,-6.57735 7.0506,-4.54147 7.0506,-5.48116 0,-0.78299 -1.0319,-1.87919 -0.8598,-1.09628 -4.9869,-2.34908 -3.9552,-1.25279 -10.6619,-1.25279 -14.617,0 -22.8713,6.73395 -8.2544,6.73395 -8.2544,13.1547 z m 72.9134,-51.36599 q 0,4.22829 -4.8151,26.30939 -4.815,22.08112 -6.0188,32.73014 -1.2038,3.60187 -4.4711,6.26415 -3.2673,2.50568 -4.987,2.50568 -5.3309,0 -5.3309,-9.55282 0,-1.0962 0.5159,-7.67355 -6.8786,5.79426 -18.9162,11.27542 -12.0376,5.32455 -19.4321,5.32455 -4.815,0 -11.3497,-1.40948 -6.3627,-1.40939 -8.9422,-3.44528 -2.5794,-2.19248 -2.5794,-8.14333 0,-11.27551 6.3626,-17.53967 6.3627,-6.26411 19.4321,-11.58864 13.7573,-5.79432 24.935,-5.79432 4.815,0 7.7384,1.09622 2.9235,1.09622 4.2992,2.66226 1.5477,1.40944 1.7197,1.40944 2.5794,0.4698 4.2991,2.03584 3.2673,-13.78111 3.2673,-22.23771 0,-11.11885 -6.7066,-11.11885 -8.2543,0 -18.5723,2.97547 -10.1459,2.97547 -18.5722,6.10754 -8.2544,2.97547 -11.6937,2.97547 -3.6113,0 -3.6113,-2.81887 0,-0.1566 0,-0.31321 0.172,-0.31321 0.172,-0.4698 0.6879,-2.66226 2.2356,-4.54151 1.5476,-2.03584 5.1589,-3.60188 3.7832,-1.72264 6.3627,-2.66226 2.7515,-0.93962 9.8021,-2.97547 7.0505,-2.03584 11.1777,-3.44527 10.3179,-3.28869 18.9162,-3.28869 13.9292,0 18.0563,11.90188 1.5478,3.91509 1.5478,7.04716 z" />
    <path
       inkscape:connector-curvature="0"
       id="path6769"
       style="font-style:oblique;font-variant:normal;font-weight:bold;font-stretch:normal;font-size:medium;line-height:125%;font-family:Purisa;-inkscape-font-specification:'Purisa, Bold Oblique';text-align:center;letter-spacing:13.60246181px;word-spacing:0px;writing-mode:lr-tb;text-anchor:middle;fill:url(#linearGradient6858);fill-opacity:1;stroke:url(#linearGradient6860);stroke-width:8.38757706;stroke-linecap:butt;stroke-linejoin:miter;stroke-miterlimit:4;stroke-dasharray:none;stroke-opacity:0"
       d="m 1636.0577,912.80059 q 0,-2.66226 2.5794,-5.63772 2.7514,-3.13207 5.6749,-3.13207 2.7514,0 4.815,2.81886 2.2356,2.81887 2.2356,8.9264 0,2.66226 -0.6879,7.67358 -0.516,4.8547 -0.516,6.57735 0,2.03584 0.516,3.13206 0.8598,2.03585 1.2037,9.70943 0.5159,7.51697 0.6879,17.06977 0.3439,9.55282 0.6878,13.46789 2.9234,-4.54146 7.5665,-11.74521 4.6431,-7.36044 6.5347,-10.17926 2.0636,-2.97547 4.987,-6.73395 2.9234,-3.75849 5.3309,-5.01132 2.4076,-1.25283 4.987,-1.25283 4.6431,0 11.1778,7.36038 6.7066,7.36036 8.5982,12.9981 1.3757,4.69807 4.6431,9.23963 2.4075,-3.91516 15.1329,-30.85093 12.8974,-27.09242 17.3685,-31.00751 2.4075,-1.87923 4.6431,-1.87923 2.4075,0 4.1272,1.56602 1.7196,1.40944 1.7196,3.44529 0,1.25283 -1.5477,3.75848 -1.3757,2.50566 -5.5029,10.02263 -3.9552,7.51697 -8.4263,17.8528 -5.8468,13.62456 -14.445,29.12824 -8.4263,15.50378 -11.0058,17.38306 -1.8917,1.40939 -5.159,1.40939 -4.2991,0 -7.0506,-4.85466 -2.7514,-4.85476 -10.3178,-24.11701 -1.3758,-3.13208 -5.1591,-6.57733 -1.0317,1.09627 -3.2673,4.38494 -2.2355,3.13198 -7.9104,11.27542 -5.5028,7.98674 -12.2095,17.22636 -6.3627,8.61323 -11.6937,8.61323 -2.9233,0 -4.643,-2.19248 -1.8916,-2.81887 -2.5795,-12.9981 -0.6879,-10.33582 -0.8598,-23.64711 -0.172,-13.31131 -0.6879,-17.85281 -0.5159,-4.85471 -0.5159,-9.39621 0,-2.66226 0.344,-4.2283 0.3439,-1.72264 0.3439,-2.81887 0,-1.87923 -0.8598,-4.6981 -0.8598,-2.97547 -0.8598,-4.2283 z" />
    <path
       inkscape:connector-curvature="0"
       id="path6771"
       style="font-style:oblique;font-variant:normal;font-weight:bold;font-stretch:normal;font-size:medium;line-height:125%;font-family:Purisa;-inkscape-font-specification:'Purisa, Bold Oblique';text-align:center;letter-spacing:13.60246181px;word-spacing:0px;writing-mode:lr-tb;text-anchor:middle;fill:url(#linearGradient6862);fill-opacity:1;stroke:url(#linearGradient6864);stroke-width:8.38757706;stroke-linecap:butt;stroke-linejoin:miter;stroke-miterlimit:4;stroke-dasharray:none;stroke-opacity:0"
       d="m 1785.8284,974.97223 q 0,1.87919 3.0954,3.13207 3.2673,1.2528 5.8468,1.2528 3.7833,0 9.8021,-1.72259 6.1907,-1.72269 10.4899,-3.28868 l 4.1271,-1.72268 q 0.5159,-2.03588 7.3945,-6.57735 7.0506,-4.54147 7.0506,-5.48116 0,-0.78299 -1.0319,-1.87919 -0.8598,-1.09628 -4.9869,-2.34908 -3.9552,-1.25279 -10.6619,-1.25279 -14.617,0 -22.8713,6.73395 -8.2544,6.73395 -8.2544,13.1547 z m 72.9133,-51.36599 q 0,4.22829 -4.8151,26.30939 -4.815,22.08112 -6.0187,32.73014 -1.2038,3.60187 -4.4711,6.26415 -3.2673,2.50568 -4.987,2.50568 -5.3309,0 -5.3309,-9.55282 0,-1.0962 0.5159,-7.67355 -6.8786,5.79426 -18.9163,11.27542 -12.0375,5.32455 -19.432,5.32455 -4.815,0 -11.3497,-1.40948 -6.3627,-1.40939 -8.9422,-3.44528 -2.5794,-2.19248 -2.5794,-8.14333 0,-11.27551 6.3626,-17.53967 6.3627,-6.26411 19.4321,-11.58864 13.7573,-5.79432 24.935,-5.79432 4.815,0 7.7384,1.09622 2.9235,1.09622 4.2991,2.66226 1.5478,1.40944 1.7198,1.40944 2.5794,0.4698 4.2991,2.03584 3.2673,-13.78111 3.2673,-22.23771 0,-11.11885 -6.7066,-11.11885 -8.2543,0 -18.5723,2.97547 -10.146,2.97547 -18.5722,6.10754 -8.2544,2.97547 -11.6937,2.97547 -3.6113,0 -3.6113,-2.81887 0,-0.1566 0,-0.31321 0.172,-0.31321 0.172,-0.4698 0.6879,-2.66226 2.2355,-4.54151 1.5477,-2.03584 5.159,-3.60188 3.7832,-1.72264 6.3627,-2.66226 2.7515,-0.93962 9.802,-2.97547 7.0506,-2.03584 11.1778,-3.44527 10.3179,-3.28869 18.9161,-3.28869 13.9292,0 18.0564,11.90188 1.5477,3.91509 1.5477,7.04716 z" />
    <path
       inkscape:connector-curvature="0"
       id="path6773"
       style="font-style:oblique;font-variant:normal;font-weight:bold;font-stretch:normal;font-size:medium;line-height:125%;font-family:Purisa;-inkscape-font-specification:'Purisa, Bold Oblique';text-align:center;letter-spacing:13.60246181px;word-spacing:0px;writing-mode:lr-tb;text-anchor:middle;fill:url(#linearGradient6866);fill-opacity:1;stroke:url(#linearGradient6868);stroke-width:8.38757706;stroke-linecap:butt;stroke-linejoin:miter;stroke-miterlimit:4;stroke-dasharray:none;stroke-opacity:0"
       d="m 1903.3341,982.95897 q -7.0506,0 -10.146,-4.69807 -3.0954,-4.85476 -3.0954,-10.02262 0,-5.16796 3.6113,-20.04528 5.8468,-24.89997 9.4581,-31.0075 3.2673,-5.48113 7.5665,-5.48113 4.643,0 4.643,4.6981 0,2.97547 -4.987,22.55092 -4.9869,19.57547 -4.9869,26.15281 0,4.38487 1.7196,4.38487 2.4075,0 11.6936,-6.73395 9.2862,-6.73394 14.2731,-13.15469 6.1908,-7.98678 11.6937,-19.57544 5.5029,-11.58867 9.1141,-17.383 3.7833,-5.79433 9.1143,-5.79433 2.4074,0 4.1271,1.40943 1.7196,1.40944 1.7196,3.75849 0,2.81886 -4.1271,10.02262 -3.9552,7.04717 -8.9422,18.94903 -4.987,11.74527 -6.7066,25.21317 l 0.1719,1.72268 3.4393,-1.25289 q 4.1272,-1.87918 7.9104,-1.87918 5.8469,0 5.8469,3.75847 0,5.16786 -10.6619,9.70942 l -6.5347,2.50568 -2.7515,15.66028 q -6.5347,23.96044 -8.7701,28.50184 -2.0637,4.6981 -7.9105,4.6981 -4.2991,0 -12.2095,-2.9755 -4.4711,-1.8792 -6.8786,-4.0716 -2.2355,-2.1924 -3.7833,-6.5774 -2.2355,-6.5773 -2.2355,-11.432 0,-3.7585 1.0318,-6.42075 1.0318,-2.66228 2.0635,-3.91507 1.0319,-1.25289 3.9552,-3.75857 2.9234,-2.66218 4.4712,-4.38487 2.5794,-2.81887 7.2225,-4.69806 4.6431,-1.87929 4.987,-2.03588 1.2037,-0.783 5.159,-2.66228 0.5159,-1.40939 0.5159,-5.63766 0,-1.40949 -0.3439,-2.97548 -0.688,0.4698 -4.8151,3.60187 -4.1272,2.97548 -7.5665,5.16787 -3.2673,2.03588 -8.4263,4.07176 -5.159,2.03579 -9.63,2.03579 z m 24.2471,32.57353 q 3.4393,-4.8546 3.4393,-20.04523 l 0,-1.40939 q 0,-1.25289 0.5159,-4.22836 l -1.8917,1.87928 q -4.4711,4.38487 -7.2225,8.6131 -2.7514,4.2284 -2.7514,5.7944 0,2.0359 3.0954,5.3245 3.0953,3.2887 4.815,4.0717 z" />
    <path
       inkscape:connector-curvature="0"
       id="path6775"
       style="font-style:oblique;font-variant:normal;font-weight:bold;font-stretch:normal;font-size:medium;line-height:125%;font-family:Purisa;-inkscape-font-specification:'Purisa, Bold Oblique';text-align:center;letter-spacing:13.60246181px;word-spacing:0px;writing-mode:lr-tb;text-anchor:middle;fill:url(#linearGradient6870);fill-opacity:1;stroke:url(#linearGradient6872);stroke-width:8.38757706;stroke-linecap:butt;stroke-linejoin:miter;stroke-miterlimit:4;stroke-dasharray:none;stroke-opacity:0"
       d="m 2001.3568,982.80237 q 0,-4.07167 2.4074,-6.57735 2.4076,-2.66228 4.8151,-2.66228 4.2991,0 6.3626,5.48116 1.2039,3.28867 6.7067,6.26415 5.6749,2.81888 11.1777,2.81888 7.0506,0 14.789,-7.51704 7.7386,-7.51695 7.7386,-10.64902 0,-5.32446 -7.3945,-7.51694 -5.503,-1.56609 -11.8657,-3.91507 -6.1907,-2.50568 -9.2861,-3.13208 -4.4712,-0.93959 -11.1777,-5.79435 -6.7067,-5.01132 -6.7067,-10.80565 0,-6.73395 12.7254,-17.22639 12.8974,-10.64903 28.2023,-13.4679 l 17.5405,-1.40943 q 4.643,0 6.7067,1.09622 2.2354,0.93962 4.9869,4.6981 3.7832,5.01132 3.7832,8.3 0,1.72264 -1.3756,3.13207 -1.3758,1.40942 -3.9552,1.40942 -2.7515,0 -4.4711,-1.09622 -1.5477,-1.25283 -2.4075,-2.50566 -0.6879,-1.40943 -2.9235,-2.50565 -2.0636,-1.25283 -5.6749,-1.25283 -7.5664,0 -17.0245,4.07169 -9.4581,3.91509 -15.4769,8.45659 -5.8468,4.3849 -5.8468,6.26415 0,2.03584 4.2991,5.01131 4.4711,2.81886 13.0694,5.32453 14.789,4.38489 20.8078,8.3 6.1907,3.91507 6.1907,10.17922 0,3.44528 -2.0635,8.92643 -2.0636,5.32446 -4.4712,8.61314 -3.6112,5.16796 -12.0375,10.64902 -8.2543,5.63775 -15.6488,5.63775 -5.331,0 -13.5853,-1.40939 -8.2543,-1.25289 -12.3815,-3.13208 -2.7514,-1.40948 -4.6431,-4.85476 -1.8915,-3.44527 -1.8915,-7.20374 z" />
    <g
       id="g6925">
      <path
         d="m 66.583591,969.17931 q 4.986994,-3.75848 7.222543,-5.79436 2.235547,-2.19238 4.643062,-6.42075 2.407514,-4.22827 3.783236,-10.33581 1.031792,-4.2283 1.031792,-7.20376 0,-10.49244 -11.865605,-10.49244 -4.471097,0 -9.45809,1.09622 -4.815029,0.93962 -12.037571,3.28867 -7.050577,2.34907 -8.082368,2.66227 -1.547688,0.46981 -2.063583,2.19245 -0.515897,1.56603 -1.891619,9.39621 -0.687861,4.07169 -1.203757,6.57735 -2.063583,12.37167 -2.063583,15.50374 0,4.69816 2.407513,5.79436 2.407515,1.09619 9.802022,1.25279 0.859827,0 2.235549,0.1566 1.547687,0 2.235548,0 3.955202,0 6.018786,-1.0962 2.235548,-1.09619 9.286125,-6.57734 z m 21.839592,-86.28857 q 0,-3.91508 -11.865605,-3.91508 -7.222542,0 -16.336702,1.09622 -9.114161,1.09623 -11.521674,2.03585 -1.547688,0.46981 -2.235549,4.07169 l -0.687861,3.13207 q -3.267341,13.78111 -3.267341,29.44147 0,4.22829 1.203757,4.22829 3.439306,-0.4698 17.368494,-11.27545 13.929188,-10.80564 20.8078,-19.41884 6.534681,-8.14338 6.534681,-9.39622 z m 9.114159,51.52258 q 0,10.49243 -5.158958,20.98489 -4.986993,10.49242 -12.553466,17.85277 -7.394508,7.20374 -15.820806,11.7453 -8.4263,4.54147 -15.132946,4.54147 -2.063583,0 -4.986993,-0.9396 -2.92341,-0.93959 -4.643063,-0.93959 -1.891618,0 -6.878611,1.40939 -4.815028,1.25279 -7.222541,1.25279 -7.394508,0 -7.394508,-10.64901 0,-5.32447 2.751444,-23.02073 2.751445,-17.69618 3.783237,-29.59806 0.34393,-4.54149 3.26734,-26.30939 l 1.719653,-11.90187 -4.643063,0 q -9.802022,0 -9.802022,-4.3849 0,-7.04716 32.15751,-13.78111 12.553465,-2.50566 35.252883,-2.50566 5.674854,0 8.598264,0.46982 2.92341,0.4698 4.127168,1.09622 1.375722,0.62641 4.815027,2.97546 3.095379,2.03585 3.095379,7.04716 0,0.31321 -0.17197,0.78302 0,0.46981 0,0.62642 -1.37572,5.32452 -5.158958,11.11885 -3.783236,5.79433 -7.222541,9.39621 -3.26734,3.60188 -7.910403,8.14339 -4.471098,4.38489 -4.986993,5.01131 4.471097,0.15661 10.661847,4.22829 6.362716,3.91509 7.910403,7.20377 1.547687,2.97547 1.547687,8.14339 z"
         style="font-style:oblique;font-variant:normal;font-weight:bold;font-stretch:normal;font-size:medium;line-height:125%;font-family:Purisa;-inkscape-font-specification:'Purisa, Bold Oblique';text-align:center;letter-spacing:13.60246181px;word-spacing:0px;writing-mode:lr-tb;text-anchor:middle;fill:#000000;fill-opacity:1;stroke:none;stroke-width:1px;stroke-linecap:butt;stroke-linejoin:miter;stroke-opacity:1"
         id="path6778"
         inkscape:connector-curvature="0" />
      <path
         d="m 81.030519,968.39488 q 4.986994,-3.75847 7.222543,-5.79435 2.235548,-2.19249 4.643062,-6.42075 2.407514,-4.2283 3.783236,-10.33583 1.031792,-4.2283 1.031792,-7.20377 0,-10.49244 -11.865605,-10.49244 -4.471097,0 -9.45809,1.09622 -4.815029,0.93963 -12.037571,3.28868 -7.050576,2.34905 -8.082368,2.66226 -1.547688,0.46981 -2.063583,2.19245 -0.515897,1.56604 -1.891619,9.39622 -0.687861,4.07169 -1.203757,6.57735 -2.063583,12.37168 -2.063583,15.50376 0,4.69806 2.407513,5.79435 2.407515,1.09619 9.802022,1.25279 0.859827,0 2.235549,0.1566 1.547687,0 2.235548,0 3.955202,0 6.018786,-1.09619 2.235548,-1.09629 9.286125,-6.57735 z M 102.87011,882.1063 q 0,-3.91509 -11.865604,-3.91509 -7.222542,0 -16.336703,1.09622 -9.11416,1.09623 -11.521673,2.03585 -1.547688,0.46981 -2.235549,4.07169 l -0.687861,3.13207 q -3.267341,13.78111 -3.267341,29.44147 0,4.2283 1.203757,4.2283 3.439306,-0.46982 17.368494,-11.27545 13.929188,-10.80565 20.8078,-19.41885 6.53468,-8.14338 6.53468,-9.39621 z m 9.11416,51.52257 q 0,10.49244 -5.15895,20.98492 -4.987,10.49241 -12.553474,17.85276 -7.394508,7.20374 -15.820806,11.74531 -8.4263,4.54146 -15.132946,4.54146 -2.063583,0 -4.986993,-0.93959 -2.92341,-0.93969 -4.643063,-0.93969 -1.891618,0 -6.878611,1.40949 -4.815028,1.25279 -7.222542,1.25279 -7.394507,0 -7.394507,-10.64902 0,-5.32456 2.751444,-23.02072 2.751445,-17.69621 3.783237,-29.59808 0.34393,-4.54151 3.26734,-26.3094 l 1.719653,-11.90187 -4.643063,0 q -9.802021,0 -9.802021,-4.38489 0,-7.04717 32.157508,-13.78112 12.553466,-2.50566 35.252884,-2.50566 5.67485,0 8.59826,0.46981 2.92341,0.46982 4.12717,1.09623 1.37573,0.62642 4.81503,2.97547 3.09538,2.03584 3.09538,7.04715 0,0.31321 -0.17197,0.78303 0,0.4698 0,0.62641 -1.37573,5.32452 -5.15896,11.11885 -3.78324,5.79433 -7.22254,9.39621 -3.26734,3.60189 -7.910404,8.14339 -4.471098,4.3849 -4.986994,5.01131 4.471098,0.15661 10.661848,4.2283 6.36271,3.91509 7.91041,7.20376 1.54768,2.97547 1.54768,8.14339 z"
         style="font-style:oblique;font-variant:normal;font-weight:bold;font-stretch:normal;font-size:medium;line-height:125%;font-family:Purisa;-inkscape-font-specification:'Purisa, Bold Oblique';text-align:center;letter-spacing:13.60246181px;word-spacing:0px;writing-mode:lr-tb;text-anchor:middle;fill:url(#linearGradient6810);fill-opacity:1;stroke:url(#linearGradient6812);stroke-width:8.38757706;stroke-linecap:butt;stroke-linejoin:miter;stroke-miterlimit:4;stroke-dasharray:none;stroke-opacity:0"
         id="path6745"
         inkscape:connector-curvature="0" />
      <path
         inkscape:connector-curvature="0"
         id="path6906"
         style="font-style:oblique;font-variant:normal;font-weight:bold;font-stretch:normal;font-size:medium;line-height:125%;font-family:Purisa;-inkscape-font-specification:'Purisa, Bold Oblique';text-align:center;letter-spacing:13.60246181px;word-spacing:0px;writing-mode:lr-tb;text-anchor:middle;fill:#000000;fill-opacity:1;stroke:none;stroke-width:1px;stroke-linecap:butt;stroke-linejoin:miter;stroke-opacity:1"
         d="m 66.583591,969.17931 q 4.986994,-3.75848 7.222543,-5.79436 2.235547,-2.19238 4.643062,-6.42075 2.407514,-4.22827 3.783236,-10.33581 1.031792,-4.2283 1.031792,-7.20376 0,-10.49244 -11.865605,-10.49244 -4.471097,0 -9.45809,1.09622 -4.815029,0.93962 -12.037571,3.28867 -7.050577,2.34907 -8.082368,2.66227 -1.547688,0.46981 -2.063583,2.19245 -0.515897,1.56603 -1.891619,9.39621 -0.687861,4.07169 -1.203757,6.57735 -2.063583,12.37167 -2.063583,15.50374 0,4.69816 2.407513,5.79436 2.407515,1.09619 9.802022,1.25279 0.859827,0 2.235549,0.1566 1.547687,0 2.235548,0 3.955202,0 6.018786,-1.0962 2.235548,-1.09619 9.286125,-6.57734 z m 21.839592,-86.28857 q 0,-3.91508 -11.865605,-3.91508 -7.222542,0 -16.336702,1.09622 -9.114161,1.09623 -11.521674,2.03585 -1.547688,0.46981 -2.235549,4.07169 l -0.687861,3.13207 q -3.267341,13.78111 -3.267341,29.44147 0,4.22829 1.203757,4.22829 3.439306,-0.4698 17.368494,-11.27545 13.929188,-10.80564 20.8078,-19.41884 6.534681,-8.14338 6.534681,-9.39622 z m 9.114159,51.52258 q 0,10.49243 -5.158958,20.98489 -4.986993,10.49242 -12.553466,17.85277 -7.394508,7.20374 -15.820806,11.7453 -8.4263,4.54147 -15.132946,4.54147 -2.063583,0 -4.986993,-0.9396 -2.92341,-0.93959 -4.643063,-0.93959 -1.891618,0 -6.878611,1.40939 -4.815028,1.25279 -7.222541,1.25279 -7.394508,0 -7.394508,-10.64901 0,-5.32447 2.751444,-23.02073 2.751445,-17.69618 3.783237,-29.59806 0.34393,-4.54149 3.26734,-26.30939 l 1.719653,-11.90187 -4.643063,0 q -9.802022,0 -9.802022,-4.3849 0,-7.04716 32.15751,-13.78111 12.553465,-2.50566 35.252883,-2.50566 5.674854,0 8.598264,0.46982 2.92341,0.4698 4.127168,1.09622 1.375722,0.62641 4.815027,2.97546 3.095379,2.03585 3.095379,7.04716 0,0.31321 -0.17197,0.78302 0,0.46981 0,0.62642 -1.37572,5.32452 -5.158958,11.11885 -3.783236,5.79433 -7.222541,9.39621 -3.26734,3.60188 -7.910403,8.14339 -4.471098,4.38489 -4.986993,5.01131 4.471097,0.15661 10.661847,4.22829 6.362716,3.91509 7.910403,7.20377 1.547687,2.97547 1.547687,8.14339 z" />
      <g
         id="g6918">
        <path
           d="m 81.030519,968.39488 q 4.986994,-3.75847 7.222543,-5.79435 2.235548,-2.19249 4.643062,-6.42075 2.407514,-4.2283 3.783236,-10.33583 1.031792,-4.2283 1.031792,-7.20377 0,-10.49244 -11.865605,-10.49244 -4.471097,0 -9.45809,1.09622 -4.815029,0.93963 -12.037571,3.28868 -7.050576,2.34905 -8.082368,2.66226 -1.547688,0.46981 -2.063583,2.19245 -0.515897,1.56604 -1.891619,9.39622 -0.687861,4.07169 -1.203757,6.57735 -2.063583,12.37168 -2.063583,15.50376 0,4.69806 2.407513,5.79435 2.407515,1.09619 9.802022,1.25279 0.859827,0 2.235549,0.1566 1.547687,0 2.235548,0 3.955202,0 6.018786,-1.09619 2.235548,-1.09629 9.286125,-6.57735 z M 102.87011,882.1063 q 0,-3.91509 -11.865604,-3.91509 -7.222542,0 -16.336703,1.09622 -9.11416,1.09623 -11.521673,2.03585 -1.547688,0.46981 -2.235549,4.07169 l -0.687861,3.13207 q -3.267341,13.78111 -3.267341,29.44147 0,4.2283 1.203757,4.2283 3.439306,-0.46982 17.368494,-11.27545 13.929188,-10.80565 20.8078,-19.41885 6.53468,-8.14338 6.53468,-9.39621 z m 9.11416,51.52257 q 0,10.49244 -5.15895,20.98492 -4.987,10.49241 -12.553474,17.85276 -7.394508,7.20374 -15.820806,11.74531 -8.4263,4.54146 -15.132946,4.54146 -2.063583,0 -4.986993,-0.93959 -2.92341,-0.93969 -4.643063,-0.93969 -1.891618,0 -6.878611,1.40949 -4.815028,1.25279 -7.222542,1.25279 -7.394507,0 -7.394507,-10.64902 0,-5.32456 2.751444,-23.02072 2.751445,-17.69621 3.783237,-29.59808 0.34393,-4.54151 3.26734,-26.3094 l 1.719653,-11.90187 -4.643063,0 q -9.802021,0 -9.802021,-4.38489 0,-7.04717 32.157508,-13.78112 12.553466,-2.50566 35.252884,-2.50566 5.67485,0 8.59826,0.46981 2.92341,0.46982 4.12717,1.09623 1.37573,0.62642 4.81503,2.97547 3.09538,2.03584 3.09538,7.04715 0,0.31321 -0.17197,0.78303 0,0.4698 0,0.62641 -1.37573,5.32452 -5.15896,11.11885 -3.78324,5.79433 -7.22254,9.39621 -3.26734,3.60189 -7.910404,8.14339 -4.471098,4.3849 -4.986994,5.01131 4.471098,0.15661 10.661848,4.2283 6.36271,3.91509 7.91041,7.20376 1.54768,2.97547 1.54768,8.14339 z"
           style="font-style:oblique;font-variant:normal;font-weight:bold;font-stretch:normal;font-size:medium;line-height:125%;font-family:Purisa;-inkscape-font-specification:'Purisa, Bold Oblique';text-align:center;letter-spacing:13.60246181px;word-spacing:0px;writing-mode:lr-tb;text-anchor:middle;fill:url(#linearGradient6810);fill-opacity:1;stroke:url(#linearGradient6812);stroke-width:8.38757706;stroke-linecap:butt;stroke-linejoin:miter;stroke-miterlimit:4;stroke-dasharray:none;stroke-opacity:0"
           id="path6908"
           inkscape:connector-curvature="0" />
      </g>
    </g>
  </g>
</svg>
